G04*
G04 #@! TF.GenerationSoftware,Altium Limited,Altium Designer,22.11.1 (43)*
G04*
G04 Layer_Color=255*
%FSLAX25Y25*%
%MOIN*%
G70*
G04*
G04 #@! TF.SameCoordinates,C35736E5-671D-4FAC-BA75-7313D2C136AC*
G04*
G04*
G04 #@! TF.FilePolarity,Positive*
G04*
G01*
G75*
%ADD80C,0.06102*%
%ADD81R,0.06102X0.06102*%
%ADD82R,0.06102X0.06102*%
%ADD88C,0.06000*%
%ADD89C,0.07500*%
%ADD90R,0.07500X0.07500*%
%ADD91O,0.03543X0.06299*%
%ADD92R,0.05906X0.05906*%
%ADD93C,0.05906*%
D80*
X310500Y259500D02*
D03*
Y269500D02*
D03*
Y299500D02*
D03*
X330500D02*
D03*
Y269500D02*
D03*
X470500Y228000D02*
D03*
Y238000D02*
D03*
Y268000D02*
D03*
X490500D02*
D03*
Y238000D02*
D03*
X496000Y308500D02*
D03*
X506000D02*
D03*
X536000D02*
D03*
Y288500D02*
D03*
X506000D02*
D03*
X375000Y235000D02*
D03*
X385000D02*
D03*
X415000D02*
D03*
Y215000D02*
D03*
X385000D02*
D03*
D81*
X330500Y259500D02*
D03*
X490500Y228000D02*
D03*
D82*
X496000Y288500D02*
D03*
X375000Y215000D02*
D03*
D88*
X13780Y379921D02*
D03*
X572000Y81567D02*
D03*
Y61291D02*
D03*
Y93378D02*
D03*
Y128811D02*
D03*
Y117000D02*
D03*
Y69756D02*
D03*
Y105189D02*
D03*
Y137276D02*
D03*
X289000Y99500D02*
D03*
X22500Y132087D02*
D03*
Y100000D02*
D03*
Y64567D02*
D03*
Y111811D02*
D03*
Y123622D02*
D03*
Y88189D02*
D03*
Y56102D02*
D03*
Y76378D02*
D03*
X576772Y379921D02*
D03*
X297811Y333000D02*
D03*
X318087D02*
D03*
X286000D02*
D03*
X250567D02*
D03*
X262378D02*
D03*
X309622D02*
D03*
X274189D02*
D03*
X242102D02*
D03*
X298933Y370500D02*
D03*
X319209D02*
D03*
X287122D02*
D03*
X251689D02*
D03*
X263500D02*
D03*
X310744D02*
D03*
X275311D02*
D03*
X243224D02*
D03*
X289000Y158000D02*
D03*
X13780Y13780D02*
D03*
X576772D02*
D03*
D89*
X392000Y357000D02*
D03*
X457500Y356500D02*
D03*
X209500Y358600D02*
D03*
X425500Y356500D02*
D03*
X358000Y357100D02*
D03*
D90*
X392000Y368800D02*
D03*
X457500Y368300D02*
D03*
X209500Y370400D02*
D03*
X425500Y368300D02*
D03*
X358000Y368900D02*
D03*
D91*
X152008Y382697D02*
D03*
X177992D02*
D03*
D92*
X334500Y94000D02*
D03*
X565500Y303000D02*
D03*
D93*
X334500Y104000D02*
D03*
Y114000D02*
D03*
Y124000D02*
D03*
Y134000D02*
D03*
Y144000D02*
D03*
Y154000D02*
D03*
Y164000D02*
D03*
X565500Y323000D02*
D03*
Y313000D02*
D03*
M02*
