G04*
G04 #@! TF.GenerationSoftware,Altium Limited,Altium Designer,22.11.1 (43)*
G04*
G04 Layer_Color=8388736*
%FSLAX25Y25*%
%MOIN*%
G70*
G04*
G04 #@! TF.SameCoordinates,C35736E5-671D-4FAC-BA75-7313D2C136AC*
G04*
G04*
G04 #@! TF.FilePolarity,Negative*
G04*
G01*
G75*
%ADD32R,0.08661X0.05512*%
G04:AMPARAMS|DCode=35|XSize=41.54mil|YSize=20.57mil|CornerRadius=10.29mil|HoleSize=0mil|Usage=FLASHONLY|Rotation=270.000|XOffset=0mil|YOffset=0mil|HoleType=Round|Shape=RoundedRectangle|*
%AMROUNDEDRECTD35*
21,1,0.04154,0.00000,0,0,270.0*
21,1,0.02098,0.02057,0,0,270.0*
1,1,0.02057,0.00000,-0.01049*
1,1,0.02057,0.00000,0.01049*
1,1,0.02057,0.00000,0.01049*
1,1,0.02057,0.00000,-0.01049*
%
%ADD35ROUNDEDRECTD35*%
%ADD36R,0.02057X0.04154*%
%ADD38R,0.03543X0.07874*%
%ADD39R,0.07874X0.03543*%
%ADD40R,0.05236X0.05236*%
%ADD50R,0.02808X0.02375*%
%ADD51R,0.03162X0.04737*%
%ADD52R,0.04540X0.04147*%
%ADD53R,0.04737X0.04343*%
%ADD54R,0.03556X0.02375*%
%ADD55O,0.01587X0.04147*%
%ADD56O,0.04147X0.01587*%
%ADD57R,0.13123X0.13123*%
%ADD58R,0.04343X0.04737*%
%ADD59R,0.08280X0.07887*%
G04:AMPARAMS|DCode=60|XSize=70.99mil|YSize=63.12mil|CornerRadius=17.78mil|HoleSize=0mil|Usage=FLASHONLY|Rotation=180.000|XOffset=0mil|YOffset=0mil|HoleType=Round|Shape=RoundedRectangle|*
%AMROUNDEDRECTD60*
21,1,0.07099,0.02756,0,0,180.0*
21,1,0.03543,0.06312,0,0,180.0*
1,1,0.03556,-0.01772,0.01378*
1,1,0.03556,0.01772,0.01378*
1,1,0.03556,0.01772,-0.01378*
1,1,0.03556,-0.01772,-0.01378*
%
%ADD60ROUNDEDRECTD60*%
%ADD61O,0.02375X0.06115*%
%ADD62R,0.02375X0.03556*%
%ADD63R,0.10446X0.09265*%
%ADD64R,0.04147X0.04540*%
%ADD65R,0.05524X0.05524*%
%ADD66R,0.04737X0.03162*%
G04:AMPARAMS|DCode=67|XSize=63.12mil|YSize=90.68mil|CornerRadius=17.78mil|HoleSize=0mil|Usage=FLASHONLY|Rotation=0.000|XOffset=0mil|YOffset=0mil|HoleType=Round|Shape=RoundedRectangle|*
%AMROUNDEDRECTD67*
21,1,0.06312,0.05512,0,0,0.0*
21,1,0.02756,0.09068,0,0,0.0*
1,1,0.03556,0.01378,-0.02756*
1,1,0.03556,-0.01378,-0.02756*
1,1,0.03556,-0.01378,0.02756*
1,1,0.03556,0.01378,0.02756*
%
%ADD67ROUNDEDRECTD67*%
%ADD68R,0.06312X0.05918*%
%ADD69R,0.09855X0.18713*%
%ADD70R,0.03950X0.02769*%
%ADD71O,0.06509X0.03162*%
%ADD72R,0.02375X0.02808*%
G04:AMPARAMS|DCode=73|XSize=47.37mil|YSize=145.8mil|CornerRadius=5.97mil|HoleSize=0mil|Usage=FLASHONLY|Rotation=90.000|XOffset=0mil|YOffset=0mil|HoleType=Round|Shape=RoundedRectangle|*
%AMROUNDEDRECTD73*
21,1,0.04737,0.13386,0,0,90.0*
21,1,0.03543,0.14580,0,0,90.0*
1,1,0.01194,0.06693,0.01772*
1,1,0.01194,0.06693,-0.01772*
1,1,0.01194,-0.06693,-0.01772*
1,1,0.01194,-0.06693,0.01772*
%
%ADD73ROUNDEDRECTD73*%
G04:AMPARAMS|DCode=74|XSize=236.35mil|YSize=311.15mil|CornerRadius=6.28mil|HoleSize=0mil|Usage=FLASHONLY|Rotation=90.000|XOffset=0mil|YOffset=0mil|HoleType=Round|Shape=RoundedRectangle|*
%AMROUNDEDRECTD74*
21,1,0.23635,0.29858,0,0,90.0*
21,1,0.22378,0.31115,0,0,90.0*
1,1,0.01257,0.14929,0.11189*
1,1,0.01257,0.14929,-0.11189*
1,1,0.01257,-0.14929,-0.11189*
1,1,0.01257,-0.14929,0.11189*
%
%ADD74ROUNDEDRECTD74*%
%ADD75C,0.06800*%
%ADD76C,0.00800*%
%ADD77C,0.08300*%
%ADD78R,0.08300X0.08300*%
%ADD79O,0.04343X0.07099*%
%ADD80C,0.06102*%
%ADD81R,0.06102X0.06102*%
%ADD82R,0.06102X0.06102*%
%ADD83R,0.06706X0.06706*%
%ADD84C,0.06706*%
%ADD85C,0.02769*%
D32*
X143000Y342500D02*
D03*
X130500D02*
D03*
X65500Y362500D02*
D03*
X52000D02*
D03*
D35*
X75500Y335053D02*
D03*
X71760Y341947D02*
D03*
X91000Y335053D02*
D03*
X87260Y341947D02*
D03*
D36*
X79240D02*
D03*
X94740D02*
D03*
D38*
X30000Y224571D02*
D03*
X35000D02*
D03*
X40000D02*
D03*
X45000D02*
D03*
X50000D02*
D03*
X55000D02*
D03*
X60000D02*
D03*
X65000D02*
D03*
X70000D02*
D03*
X75000D02*
D03*
X80000D02*
D03*
X85000D02*
D03*
X90000D02*
D03*
X95000D02*
D03*
Y291500D02*
D03*
X90000D02*
D03*
X85000D02*
D03*
X80000D02*
D03*
X75000D02*
D03*
X70000D02*
D03*
X65000D02*
D03*
X60000D02*
D03*
X55000D02*
D03*
X50000D02*
D03*
X45000D02*
D03*
X40000D02*
D03*
X35000D02*
D03*
X30000D02*
D03*
D39*
X98937Y235535D02*
D03*
Y240535D02*
D03*
Y245535D02*
D03*
Y250535D02*
D03*
Y255535D02*
D03*
Y260535D02*
D03*
Y265535D02*
D03*
Y270535D02*
D03*
Y275535D02*
D03*
Y280535D02*
D03*
D40*
X52303Y246874D02*
D03*
Y254098D02*
D03*
Y261323D02*
D03*
X59528Y246874D02*
D03*
Y254098D02*
D03*
Y261323D02*
D03*
X66752Y246874D02*
D03*
Y254098D02*
D03*
Y261323D02*
D03*
D50*
X545441Y222500D02*
D03*
X550559Y224468D02*
D03*
Y220532D02*
D03*
X512500Y260842D02*
D03*
X517618Y262811D02*
D03*
Y258874D02*
D03*
X479559Y213531D02*
D03*
Y217469D02*
D03*
X474441Y215500D02*
D03*
D51*
X564000Y220500D02*
D03*
X567740Y211051D02*
D03*
X560260D02*
D03*
X528500Y258842D02*
D03*
X532240Y249394D02*
D03*
X524760D02*
D03*
X489500Y213500D02*
D03*
X493240Y204051D02*
D03*
X485760D02*
D03*
D52*
X533500Y241902D02*
D03*
Y236784D02*
D03*
X514000Y241902D02*
D03*
Y236784D02*
D03*
X569000Y197441D02*
D03*
Y202559D02*
D03*
X533500Y201559D02*
D03*
Y196441D02*
D03*
X65000Y328059D02*
D03*
Y322941D02*
D03*
X54000Y164941D02*
D03*
Y170059D02*
D03*
X493500Y190441D02*
D03*
Y195559D02*
D03*
X472000Y118941D02*
D03*
Y124059D02*
D03*
X461500Y106941D02*
D03*
Y112059D02*
D03*
X28500Y328559D02*
D03*
Y323441D02*
D03*
X546500Y201559D02*
D03*
Y196441D02*
D03*
X39500Y323559D02*
D03*
Y318441D02*
D03*
X54000Y323559D02*
D03*
Y318441D02*
D03*
X134500Y113500D02*
D03*
Y118618D02*
D03*
X42500Y177441D02*
D03*
Y182559D02*
D03*
D53*
X524500Y236685D02*
D03*
Y242000D02*
D03*
X559500Y202157D02*
D03*
Y196843D02*
D03*
X127000Y373158D02*
D03*
Y367843D02*
D03*
X134500Y373158D02*
D03*
Y367843D02*
D03*
X485000Y196158D02*
D03*
Y190842D02*
D03*
X461500Y124158D02*
D03*
Y118842D02*
D03*
X187500Y134158D02*
D03*
Y128842D02*
D03*
X105000Y169315D02*
D03*
Y164000D02*
D03*
X130000Y138685D02*
D03*
Y144000D02*
D03*
X54500Y182658D02*
D03*
Y177342D02*
D03*
X188000Y149000D02*
D03*
Y143685D02*
D03*
X105000Y184658D02*
D03*
Y179342D02*
D03*
D54*
X145500Y372878D02*
D03*
Y370122D02*
D03*
D55*
X103094Y364000D02*
D03*
X105063D02*
D03*
X107032D02*
D03*
X109000D02*
D03*
X110968D02*
D03*
X112937D02*
D03*
X114906D02*
D03*
Y383095D02*
D03*
X112937D02*
D03*
X110968D02*
D03*
X109000D02*
D03*
X107032D02*
D03*
X105063D02*
D03*
X103094D02*
D03*
D56*
X118547Y367642D02*
D03*
Y369610D02*
D03*
Y371579D02*
D03*
Y373547D02*
D03*
Y375516D02*
D03*
Y377484D02*
D03*
Y379453D02*
D03*
X99453D02*
D03*
Y377484D02*
D03*
Y375516D02*
D03*
Y373547D02*
D03*
Y371579D02*
D03*
Y369610D02*
D03*
Y367642D02*
D03*
D57*
X109000Y373547D02*
D03*
D58*
X107343Y341500D02*
D03*
X112657D02*
D03*
X107343Y349500D02*
D03*
X112657D02*
D03*
X230157Y63500D02*
D03*
X224843D02*
D03*
X160843Y63000D02*
D03*
X166157D02*
D03*
X368843Y280000D02*
D03*
X374158D02*
D03*
X23500Y189000D02*
D03*
X28815D02*
D03*
X28657Y179500D02*
D03*
X23343D02*
D03*
X28500Y169500D02*
D03*
X23185D02*
D03*
D59*
X160276Y382697D02*
D03*
X169724D02*
D03*
D60*
X152402Y373051D02*
D03*
X177598D02*
D03*
D61*
X165000Y372165D02*
D03*
X167559D02*
D03*
X170118D02*
D03*
X159882D02*
D03*
X162441D02*
D03*
D62*
X170122Y362500D02*
D03*
X172878D02*
D03*
X162878D02*
D03*
X160122D02*
D03*
D63*
X451965Y81000D02*
D03*
X435035D02*
D03*
D64*
X79059Y349500D02*
D03*
X73941D02*
D03*
X94559D02*
D03*
X89441D02*
D03*
X165941Y71500D02*
D03*
X171059D02*
D03*
X369941Y300000D02*
D03*
X375059D02*
D03*
X369441Y293000D02*
D03*
X374559D02*
D03*
X219441Y71500D02*
D03*
X224559D02*
D03*
X119000Y127500D02*
D03*
X124118D02*
D03*
D65*
X41634Y349000D02*
D03*
X33366D02*
D03*
X59634D02*
D03*
X51366D02*
D03*
D66*
X360724Y292760D02*
D03*
Y300240D02*
D03*
X351276Y296500D02*
D03*
D67*
X184358Y17087D02*
D03*
X166642D02*
D03*
Y52913D02*
D03*
X184358D02*
D03*
X242000Y53827D02*
D03*
X224284D02*
D03*
Y18000D02*
D03*
X242000D02*
D03*
D68*
X469000Y146150D02*
D03*
Y139850D02*
D03*
X447500Y117350D02*
D03*
Y123650D02*
D03*
X201000Y132500D02*
D03*
Y126201D02*
D03*
X118500Y169150D02*
D03*
Y162850D02*
D03*
X200500Y143701D02*
D03*
Y150000D02*
D03*
D69*
X83500Y75461D02*
D03*
Y45539D02*
D03*
X107500Y81539D02*
D03*
Y111461D02*
D03*
X61000D02*
D03*
Y81539D02*
D03*
D70*
X22457Y160500D02*
D03*
X29543D02*
D03*
D71*
X169228Y131551D02*
D03*
Y136551D02*
D03*
X169500Y141551D02*
D03*
X169228Y146551D02*
D03*
X147772Y131551D02*
D03*
Y136551D02*
D03*
Y141551D02*
D03*
Y146551D02*
D03*
X68772Y182500D02*
D03*
Y177500D02*
D03*
Y172500D02*
D03*
Y167500D02*
D03*
X90228Y182500D02*
D03*
X90500Y177500D02*
D03*
X90228Y172500D02*
D03*
Y167500D02*
D03*
D72*
X351468Y285118D02*
D03*
X347532D02*
D03*
X349500Y280000D02*
D03*
D73*
X488130Y146236D02*
D03*
Y139543D02*
D03*
Y132850D02*
D03*
Y126157D02*
D03*
Y119465D02*
D03*
D74*
X527500Y132850D02*
D03*
D75*
X13780Y379921D02*
D03*
X572000Y81567D02*
D03*
Y61291D02*
D03*
Y93378D02*
D03*
Y128811D02*
D03*
Y117000D02*
D03*
Y69756D02*
D03*
Y105189D02*
D03*
Y137276D02*
D03*
X289000Y99500D02*
D03*
X22500Y132087D02*
D03*
Y100000D02*
D03*
Y64567D02*
D03*
Y111811D02*
D03*
Y123622D02*
D03*
Y88189D02*
D03*
Y56102D02*
D03*
Y76378D02*
D03*
X576772Y379921D02*
D03*
X297811Y333000D02*
D03*
X318087D02*
D03*
X286000D02*
D03*
X250567D02*
D03*
X262378D02*
D03*
X309622D02*
D03*
X274189D02*
D03*
X242102D02*
D03*
X298933Y370500D02*
D03*
X319209D02*
D03*
X287122D02*
D03*
X251689D02*
D03*
X263500D02*
D03*
X310744D02*
D03*
X275311D02*
D03*
X243224D02*
D03*
X289000Y158000D02*
D03*
X13780Y13780D02*
D03*
X576772D02*
D03*
D76*
X384300Y345200D02*
D03*
Y380600D02*
D03*
X449800Y380100D02*
D03*
Y344700D02*
D03*
X201800Y346800D02*
D03*
Y382200D02*
D03*
X417800Y344700D02*
D03*
Y380100D02*
D03*
X350300Y345300D02*
D03*
Y380700D02*
D03*
D77*
X392000Y357000D02*
D03*
X457500Y356500D02*
D03*
X209500Y358600D02*
D03*
X425500Y356500D02*
D03*
X358000Y357100D02*
D03*
D78*
X392000Y368800D02*
D03*
X457500Y368300D02*
D03*
X209500Y370400D02*
D03*
X425500Y368300D02*
D03*
X358000Y368900D02*
D03*
D79*
X152008Y382697D02*
D03*
X177992D02*
D03*
D80*
X310500Y259500D02*
D03*
Y269500D02*
D03*
Y299500D02*
D03*
X330500D02*
D03*
Y269500D02*
D03*
X470500Y228000D02*
D03*
Y238000D02*
D03*
Y268000D02*
D03*
X490500D02*
D03*
Y238000D02*
D03*
X496000Y308500D02*
D03*
X506000D02*
D03*
X536000D02*
D03*
Y288500D02*
D03*
X506000D02*
D03*
X375000Y235000D02*
D03*
X385000D02*
D03*
X415000D02*
D03*
Y215000D02*
D03*
X385000D02*
D03*
D81*
X330500Y259500D02*
D03*
X490500Y228000D02*
D03*
D82*
X496000Y288500D02*
D03*
X375000Y215000D02*
D03*
D83*
X334500Y94000D02*
D03*
X565500Y303000D02*
D03*
D84*
X334500Y104000D02*
D03*
Y114000D02*
D03*
Y124000D02*
D03*
Y134000D02*
D03*
Y144000D02*
D03*
Y154000D02*
D03*
Y164000D02*
D03*
X565500Y323000D02*
D03*
Y313000D02*
D03*
D85*
X104669Y369216D02*
D03*
Y373547D02*
D03*
Y377878D02*
D03*
X109000Y369216D02*
D03*
Y373547D02*
D03*
Y377878D02*
D03*
X113331Y369216D02*
D03*
Y373547D02*
D03*
Y377878D02*
D03*
M02*
