G04*
G04 #@! TF.GenerationSoftware,Altium Limited,Altium Designer,22.5.1 (42)*
G04*
G04 Layer_Color=16711935*
%FSLAX25Y25*%
%MOIN*%
G70*
G04*
G04 #@! TF.SameCoordinates,12F1D17F-3755-47B3-A83E-197F31224518*
G04*
G04*
G04 #@! TF.FilePolarity,Positive*
G04*
G01*
G75*
%ADD13C,0.01000*%
%ADD94C,0.00600*%
G36*
X429749Y282336D02*
X429249D01*
Y282419D01*
X428916D01*
Y282503D01*
X428666D01*
Y282586D01*
X428499D01*
Y282669D01*
X428416D01*
Y282752D01*
X428333D01*
Y282836D01*
X428249D01*
Y282919D01*
X428166D01*
Y283002D01*
X428083D01*
Y283086D01*
X427999D01*
Y283169D01*
X427916D01*
Y283336D01*
X427833D01*
Y283502D01*
X427749D01*
Y283752D01*
X427666D01*
Y284585D01*
X427749D01*
Y284835D01*
X427833D01*
Y285085D01*
X427916D01*
Y285169D01*
X427999D01*
Y285335D01*
X428083D01*
Y285419D01*
X428166D01*
Y285502D01*
X428249D01*
Y285585D01*
X428333D01*
Y285669D01*
X428499D01*
Y285752D01*
X428583D01*
Y285835D01*
X428749D01*
Y285918D01*
X428999D01*
Y286002D01*
X429999D01*
Y285918D01*
X430249D01*
Y285835D01*
X430416D01*
Y285752D01*
X430499D01*
Y285669D01*
X430666D01*
Y285585D01*
X430749D01*
Y285502D01*
X430832D01*
Y285419D01*
X430916D01*
Y285335D01*
X430999D01*
Y285169D01*
X431082D01*
Y285085D01*
X431166D01*
Y284835D01*
X431249D01*
Y284585D01*
X431332D01*
Y283752D01*
X431249D01*
Y283502D01*
X431166D01*
Y283336D01*
X431082D01*
Y283169D01*
X430999D01*
Y283086D01*
X430916D01*
Y283002D01*
X430832D01*
Y282919D01*
X430749D01*
Y282836D01*
X430666D01*
Y282752D01*
X430582D01*
Y282669D01*
X430499D01*
Y282586D01*
X430332D01*
Y282503D01*
X430082D01*
Y282419D01*
X429832D01*
Y282336D01*
X429749D01*
D02*
G37*
D13*
X199000Y344500D02*
Y384500D01*
X222500Y344500D02*
Y384500D01*
X199000Y344500D02*
X222500D01*
X199000Y384500D02*
X222500D01*
X347500Y343000D02*
Y383000D01*
X371000Y343000D02*
Y383000D01*
X347500Y343000D02*
X371000D01*
X347500Y383000D02*
X371000D01*
X381500Y342900D02*
Y382900D01*
X405000Y342900D02*
Y382900D01*
X381500Y342900D02*
X405000D01*
X381500Y382900D02*
X405000D01*
X415000Y342400D02*
Y382400D01*
X438500Y342400D02*
Y382400D01*
X415000Y342400D02*
X438500D01*
X415000Y382400D02*
X438500D01*
X447000Y342400D02*
Y382400D01*
X470500Y342400D02*
Y382400D01*
X447000Y342400D02*
X470500D01*
X447000Y382400D02*
X470500D01*
X567772Y370921D02*
X585772D01*
X567772Y388921D02*
X585772D01*
Y370921D02*
Y388921D01*
X567772Y370921D02*
Y388921D01*
X280000Y149000D02*
Y167000D01*
X298000Y149000D02*
Y167000D01*
X280000D02*
X298000D01*
X280000Y149000D02*
X298000D01*
X280000Y90500D02*
Y108500D01*
X298000Y90500D02*
Y108500D01*
X280000D02*
X298000D01*
X280000Y90500D02*
X298000D01*
X4780Y4780D02*
Y22780D01*
X22780Y4780D02*
Y22780D01*
X4780D02*
X22780D01*
X4780Y4780D02*
X22780D01*
X567772D02*
Y22780D01*
X585772Y4780D02*
Y22780D01*
X567772D02*
X585772D01*
X567772Y4780D02*
X585772D01*
X4780Y370921D02*
Y388921D01*
X22780Y370921D02*
Y388921D01*
X4780D02*
X22780D01*
X4780Y370921D02*
X22780D01*
D94*
X505949Y134849D02*
Y131517D01*
X506615Y130850D01*
X507948D01*
X508615Y131517D01*
Y134849D01*
X509947Y130850D02*
X511280D01*
X510614D01*
Y134849D01*
X509947Y134183D01*
M02*
