G04*
G04 #@! TF.GenerationSoftware,Altium Limited,Altium Designer,22.11.1 (43)*
G04*
G04 Layer_Color=16711935*
%FSLAX25Y25*%
%MOIN*%
G70*
G04*
G04 #@! TF.SameCoordinates,C35736E5-671D-4FAC-BA75-7313D2C136AC*
G04*
G04*
G04 #@! TF.FilePolarity,Positive*
G04*
G01*
G75*
%ADD98C,0.00394*%
%ADD99R,0.02420X0.14173*%
D98*
X104669Y367248D02*
G03*
X104669Y367248I-1969J0D01*
G01*
X156138Y145350D02*
G03*
X156138Y145350I-1969J0D01*
G01*
X77138Y181299D02*
G03*
X77138Y181299I-1969J0D01*
G01*
X546327Y225847D02*
X549673D01*
X546327Y219153D02*
X549673D01*
X546327D02*
Y225847D01*
X549673Y219153D02*
Y225847D01*
X513386Y264189D02*
X516732D01*
X513386Y257496D02*
X516732D01*
X513386D02*
Y264189D01*
X516732Y257496D02*
Y264189D01*
X569906Y213020D02*
Y218531D01*
X558095Y213020D02*
Y218531D01*
X569906D01*
X558095Y213020D02*
X569906D01*
X534406Y251362D02*
Y256874D01*
X522594Y251362D02*
Y256874D01*
X534406D01*
X522594Y251362D02*
X534406D01*
X535370Y235898D02*
Y242787D01*
X531630Y235898D02*
Y242787D01*
X535370D01*
X531630Y235898D02*
X535370D01*
X522630Y235898D02*
Y242787D01*
X526370Y235898D02*
Y242787D01*
X522630Y235898D02*
X526370D01*
X522630Y242787D02*
X526370D01*
X515870Y235898D02*
Y242787D01*
X512130Y235898D02*
Y242787D01*
X515870D01*
X512130Y235898D02*
X515870D01*
X567130Y196555D02*
X570870D01*
X567130Y203445D02*
X570870D01*
X567130Y196555D02*
Y203445D01*
X570870Y196555D02*
Y203445D01*
X557630Y202945D02*
X561370D01*
X557630Y196055D02*
X561370D01*
Y202945D01*
X557630Y196055D02*
Y202945D01*
X144319Y373075D02*
X146681D01*
X144319Y369925D02*
X146681D01*
Y373075D01*
X144319Y369925D02*
Y373075D01*
X99158Y363705D02*
X118842D01*
X99158Y383390D02*
X118842D01*
X99158Y363705D02*
Y383390D01*
X118842Y363705D02*
Y383390D01*
X535370Y195555D02*
Y202445D01*
X531630Y195555D02*
Y202445D01*
X535370D01*
X531630Y195555D02*
X535370D01*
X106555Y339630D02*
Y343370D01*
X113445Y339630D02*
Y343370D01*
X106555D02*
X113445D01*
X106555Y339630D02*
X113445D01*
X169925Y363681D02*
X173075D01*
X169925Y361319D02*
X173075D01*
X169925D02*
Y363681D01*
X173075Y361319D02*
Y363681D01*
X159925Y361319D02*
X163075D01*
X159925Y363681D02*
X163075D01*
Y361319D02*
Y363681D01*
X159925Y361319D02*
Y363681D01*
X452496Y73913D02*
Y88087D01*
X434504Y73913D02*
Y88087D01*
Y73913D02*
X452496D01*
X434504Y88087D02*
X452496D01*
X79945Y347630D02*
Y351370D01*
X73055Y347630D02*
Y351370D01*
Y347630D02*
X79945D01*
X73055Y351370D02*
X79945D01*
X125130Y373945D02*
X128870D01*
X125130Y367055D02*
X128870D01*
Y373945D01*
X125130Y367055D02*
Y373945D01*
X95445Y347630D02*
Y351370D01*
X88555Y347630D02*
Y351370D01*
Y347630D02*
X95445D01*
X88555Y351370D02*
X95445D01*
X106555Y347630D02*
Y351370D01*
X113445Y347630D02*
Y351370D01*
X106555D02*
X113445D01*
X106555Y347630D02*
X113445D01*
X132630Y373945D02*
X136370D01*
X132630Y367055D02*
X136370D01*
Y373945D01*
X132630Y367055D02*
Y373945D01*
X63130Y328945D02*
X66870D01*
X63130Y322055D02*
X66870D01*
Y328945D01*
X63130Y322055D02*
Y328945D01*
X33169Y346342D02*
X41831D01*
X33169Y351658D02*
X41831D01*
Y346342D02*
Y351658D01*
X33169Y346342D02*
Y351658D01*
X358756Y290595D02*
Y302406D01*
X353244Y290595D02*
Y302406D01*
Y290595D02*
X358756D01*
X353244Y302406D02*
X358756D01*
X230945Y61630D02*
Y65370D01*
X224055Y61630D02*
Y65370D01*
Y61630D02*
X230945D01*
X224055Y65370D02*
X230945D01*
X165055Y69630D02*
Y73370D01*
X171945Y69630D02*
Y73370D01*
X165055D02*
X171945D01*
X165055Y69630D02*
X171945D01*
X160055Y61130D02*
Y64870D01*
X166945Y61130D02*
Y64870D01*
X160055D02*
X166945D01*
X160055Y61130D02*
X166945D01*
X471756Y138669D02*
Y147331D01*
X466244Y138669D02*
Y147331D01*
X471756D01*
X466244Y138669D02*
X471756D01*
X483130Y196945D02*
X486870D01*
X483130Y190055D02*
X486870D01*
Y196945D01*
X483130Y190055D02*
Y196945D01*
X478673Y212154D02*
Y218847D01*
X475327Y212154D02*
Y218847D01*
Y212154D02*
X478673D01*
X475327Y218847D02*
X478673D01*
X93933Y76839D02*
X99839Y70933D01*
Y44161D02*
Y70933D01*
X67161Y44161D02*
X99839D01*
X67161D02*
Y70933D01*
X73067Y76839D01*
X93933D01*
X52130Y164055D02*
X55870D01*
X52130Y170945D02*
X55870D01*
X52130Y164055D02*
Y170945D01*
X55870Y164055D02*
Y170945D01*
X23441Y162173D02*
X28559D01*
X23441Y158827D02*
X28559D01*
X23441D02*
Y162173D01*
X28559Y158827D02*
Y162173D01*
X368055Y278130D02*
Y281870D01*
X374945Y278130D02*
Y281870D01*
X368055D02*
X374945D01*
X368055Y278130D02*
X374945D01*
X22713Y190870D02*
X29602D01*
X22713Y187130D02*
X29602D01*
X22713D02*
Y190870D01*
X29602Y187130D02*
Y190870D01*
X29445Y177630D02*
Y181370D01*
X22555Y177630D02*
Y181370D01*
Y177630D02*
X29445D01*
X22555Y181370D02*
X29445D01*
X29287Y167630D02*
Y171370D01*
X22398Y167630D02*
Y171370D01*
Y167630D02*
X29287D01*
X22398Y171370D02*
X29287D01*
X495405Y206020D02*
Y211531D01*
X483595Y206020D02*
Y211531D01*
X495405D01*
X483595Y206020D02*
X495405D01*
X491630Y189555D02*
X495370D01*
X491630Y196445D02*
X495370D01*
X491630Y189555D02*
Y196445D01*
X495370Y189555D02*
Y196445D01*
X150626Y129209D02*
X166374D01*
X150626Y148894D02*
X166374D01*
Y129209D02*
Y148894D01*
X150626Y129209D02*
Y148894D01*
X463370Y118055D02*
Y124945D01*
X459630Y118055D02*
Y124945D01*
X463370D01*
X459630Y118055D02*
X463370D01*
X470130Y118055D02*
X473870D01*
X470130Y124945D02*
X473870D01*
X470130Y118055D02*
Y124945D01*
X473870Y118055D02*
Y124945D01*
X459630Y106055D02*
X463370D01*
X459630Y112945D02*
X463370D01*
X459630Y106055D02*
Y112945D01*
X463370Y106055D02*
Y112945D01*
X26630Y329445D02*
X30370D01*
X26630Y322555D02*
X30370D01*
Y329445D01*
X26630Y322555D02*
Y329445D01*
X59831Y346342D02*
Y351658D01*
X51169Y346342D02*
Y351658D01*
Y346342D02*
X59831D01*
X51169Y351658D02*
X59831D01*
X548370Y195555D02*
Y202445D01*
X544630Y195555D02*
Y202445D01*
X548370D01*
X544630Y195555D02*
X548370D01*
X369055Y301870D02*
X375945D01*
X369055Y298130D02*
X375945D01*
X369055D02*
Y301870D01*
X375945Y298130D02*
Y301870D01*
X368555Y294870D02*
X375445D01*
X368555Y291130D02*
X375445D01*
X368555D02*
Y294870D01*
X375445Y291130D02*
Y294870D01*
X346153Y284232D02*
X352847D01*
X346153Y280886D02*
X352847D01*
Y284232D01*
X346153Y280886D02*
Y284232D01*
X91161Y86067D02*
X97067Y80161D01*
X91161Y86067D02*
Y112839D01*
X123839D01*
Y86067D02*
Y112839D01*
X117933Y80161D02*
X123839Y86067D01*
X97067Y80161D02*
X117933D01*
X50567D02*
X71433D01*
X77339Y86067D01*
Y112839D01*
X44661D02*
X77339D01*
X44661Y86067D02*
Y112839D01*
Y86067D02*
X50567Y80161D01*
X504468Y112378D02*
Y153323D01*
X544232Y112378D02*
Y153323D01*
X504468D02*
X544232D01*
X504468Y112378D02*
X544232D01*
X444744Y116169D02*
X450256D01*
X444744Y124831D02*
X450256D01*
X444744Y116169D02*
Y124831D01*
X450256Y116169D02*
Y124831D01*
X218555Y73370D02*
X225445D01*
X218555Y69630D02*
X225445D01*
X218555D02*
Y73370D01*
X225445Y69630D02*
Y73370D01*
X41370Y317555D02*
Y324445D01*
X37630Y317555D02*
Y324445D01*
X41370D01*
X37630Y317555D02*
X41370D01*
X55870D02*
Y324445D01*
X52130Y317555D02*
Y324445D01*
X55870D01*
X52130Y317555D02*
X55870D01*
X71626Y165157D02*
Y184843D01*
X87374Y165157D02*
Y184843D01*
X71626D02*
X87374D01*
X71626Y165157D02*
X87374D01*
X132630Y112614D02*
Y119504D01*
X136370Y112614D02*
Y119504D01*
X132630Y112614D02*
X136370D01*
X132630Y119504D02*
X136370D01*
X40630Y176555D02*
Y183445D01*
X44370Y176555D02*
Y183445D01*
X40630Y176555D02*
X44370D01*
X40630Y183445D02*
X44370D01*
X118114Y129370D02*
X125004D01*
X118114Y125630D02*
X125004D01*
X118114D02*
Y129370D01*
X125004Y125630D02*
Y129370D01*
X203756Y125020D02*
Y133681D01*
X198244Y125020D02*
Y133681D01*
X203756D01*
X198244Y125020D02*
X203756D01*
X189370Y128055D02*
Y134945D01*
X185630Y128055D02*
Y134945D01*
X189370D01*
X185630Y128055D02*
X189370D01*
X106870Y163213D02*
Y170102D01*
X103130Y163213D02*
Y170102D01*
X106870D01*
X103130Y163213D02*
X106870D01*
X121256Y161669D02*
Y170331D01*
X115744Y161669D02*
Y170331D01*
X121256D01*
X115744Y161669D02*
X121256D01*
X128130Y137898D02*
Y144787D01*
X131870Y137898D02*
Y144787D01*
X128130Y137898D02*
X131870D01*
X128130Y144787D02*
X131870D01*
X56370Y176555D02*
Y183445D01*
X52630Y176555D02*
Y183445D01*
X56370D01*
X52630Y176555D02*
X56370D01*
X189870Y142898D02*
Y149787D01*
X186130Y142898D02*
Y149787D01*
X189870D01*
X186130Y142898D02*
X189870D01*
X197744Y142520D02*
Y151181D01*
X203256Y142520D02*
Y151181D01*
X197744Y142520D02*
X203256D01*
X197744Y151181D02*
X203256D01*
X106870Y178555D02*
Y185445D01*
X103130Y178555D02*
Y185445D01*
X106870D01*
X103130Y178555D02*
X106870D01*
D99*
X435714Y81000D02*
D03*
M02*
