G04*
G04 #@! TF.GenerationSoftware,Altium Limited,Altium Designer,22.5.1 (42)*
G04*
G04 Layer_Color=32768*
%FSLAX25Y25*%
%MOIN*%
G70*
G04*
G04 #@! TF.SameCoordinates,12F1D17F-3755-47B3-A83E-197F31224518*
G04*
G04*
G04 #@! TF.FilePolarity,Positive*
G04*
G01*
G75*
%ADD16C,0.00787*%
%ADD95C,0.00394*%
%ADD97C,0.00197*%
D16*
X494008Y390402D02*
X529441D01*
X494008Y362842D02*
Y390402D01*
Y362842D02*
X529441D01*
Y390402D01*
X509224Y377803D02*
X514224D01*
X511724Y375303D02*
Y380303D01*
X173000Y35000D02*
X178000D01*
X175500Y32500D02*
Y37500D01*
X161500Y10500D02*
X189500D01*
Y59500D01*
X161500D02*
X189500D01*
X161500Y10500D02*
Y59500D01*
X219142Y11413D02*
Y60413D01*
X247142D01*
Y11413D02*
Y60413D01*
X219142Y11413D02*
X247142D01*
X233142Y33413D02*
Y38413D01*
X230642Y35913D02*
X235642D01*
D95*
X167130Y266500D02*
X170870D01*
X169000Y264630D02*
Y268370D01*
X183031Y262000D02*
X186969D01*
X185000Y260032D02*
Y263968D01*
X354031Y296500D02*
X357968D01*
X356000Y294531D02*
Y298468D01*
X225630Y63500D02*
X229370D01*
X227500Y61630D02*
Y65370D01*
X166571Y70500D02*
X170311D01*
X168441Y68630D02*
Y72370D01*
X161630Y63000D02*
X165370D01*
X163500Y61130D02*
Y64870D01*
X287000Y38130D02*
Y41870D01*
X285130Y40000D02*
X288870D01*
X481630Y49500D02*
X485370D01*
X483500Y47630D02*
Y51370D01*
X467031Y143000D02*
X470968D01*
X469000Y141032D02*
Y144968D01*
X514630Y349500D02*
X518370D01*
X516500Y347630D02*
Y351370D01*
X485000Y191630D02*
Y195370D01*
X483130Y193500D02*
X486870D01*
X475032Y215500D02*
X478968D01*
X477000Y213531D02*
Y217469D01*
X398590Y158000D02*
X402528D01*
X400559Y156032D02*
Y159968D01*
X487032Y32500D02*
X490969D01*
X489000Y30531D02*
Y34468D01*
X83500Y58531D02*
Y62468D01*
X81532Y60500D02*
X85469D01*
X54000Y165630D02*
Y169370D01*
X52130Y167500D02*
X55870D01*
X96000Y347630D02*
Y351370D01*
X94130Y349500D02*
X97870D01*
X115000Y345630D02*
Y349370D01*
X113130Y347500D02*
X116870D01*
X136500Y345630D02*
Y349370D01*
X134630Y347500D02*
X138370D01*
X134031Y370366D02*
X137969D01*
X136000Y368398D02*
Y372335D01*
X115500Y368898D02*
Y372835D01*
X113531Y370866D02*
X117469D01*
X94532D02*
X98469D01*
X96500Y368898D02*
Y372835D01*
X26000Y158531D02*
Y162469D01*
X23638Y160500D02*
X27575D01*
X410000Y134630D02*
Y138370D01*
X408130Y136500D02*
X411870D01*
X369630Y280500D02*
X373370D01*
X371500Y278630D02*
Y282370D01*
X26158Y187130D02*
Y190870D01*
X24287Y189000D02*
X28028D01*
X24130Y179500D02*
X27870D01*
X26000Y177630D02*
Y181370D01*
X23972Y169500D02*
X27713D01*
X25842Y167630D02*
Y171370D01*
X487532Y208776D02*
X491468D01*
X489500Y206807D02*
Y210744D01*
X493500Y191130D02*
Y194870D01*
X491630Y193000D02*
X495370D01*
X158500Y137083D02*
Y141020D01*
X156532Y139051D02*
X160468D01*
X557630Y199500D02*
X561370D01*
X559500Y197630D02*
Y201370D01*
X459630Y121500D02*
X463370D01*
X461500Y119630D02*
Y123370D01*
X472000Y119630D02*
Y123370D01*
X470130Y121500D02*
X473870D01*
X461500Y107630D02*
Y111370D01*
X459630Y109500D02*
X463370D01*
X167130Y257500D02*
X170870D01*
X169000Y255630D02*
Y259370D01*
X234500Y274972D02*
Y278713D01*
X232630Y276842D02*
X236370D01*
X173531Y277000D02*
X177469D01*
X175500Y275031D02*
Y278969D01*
X331500Y47630D02*
Y51370D01*
X329630Y49500D02*
X333370D01*
X454500Y47630D02*
Y51370D01*
X452630Y49500D02*
X456370D01*
X564000Y213807D02*
Y217744D01*
X562032Y215776D02*
X565969D01*
X414000Y149307D02*
Y153244D01*
X412032Y151276D02*
X415969D01*
X567130Y200000D02*
X570870D01*
X569000Y198130D02*
Y201870D01*
X545130Y199000D02*
X548870D01*
X547000Y197130D02*
Y200870D01*
X372500Y298130D02*
Y301870D01*
X370630Y300000D02*
X374370D01*
X372000Y291130D02*
Y294870D01*
X370130Y293000D02*
X373870D01*
X546032Y222500D02*
X549968D01*
X548000Y220532D02*
Y224468D01*
X349500Y280591D02*
Y284528D01*
X347532Y282559D02*
X351468D01*
X460032Y31500D02*
X463969D01*
X462000Y29531D02*
Y33468D01*
X491630Y47500D02*
X495370D01*
X493500Y45630D02*
Y49370D01*
X399500Y134630D02*
Y138370D01*
X397630Y136500D02*
X401370D01*
X419000Y134630D02*
Y138370D01*
X417130Y136500D02*
X420870D01*
X464130Y45500D02*
X467870D01*
X466000Y43630D02*
Y47370D01*
X523000Y15988D02*
Y19925D01*
X521032Y17957D02*
X524968D01*
X107500Y94532D02*
Y98469D01*
X105532Y96500D02*
X109468D01*
X59031D02*
X62968D01*
X61000Y94532D02*
Y98469D01*
X509980Y132850D02*
X513917D01*
X511949Y130882D02*
Y134819D01*
X447500Y118532D02*
Y122468D01*
X445532Y120500D02*
X449469D01*
X311500Y42531D02*
Y46468D01*
X309531Y44500D02*
X313469D01*
X222000Y69630D02*
Y73370D01*
X220130Y71500D02*
X223870D01*
X285630Y54000D02*
X289370D01*
X287500Y52130D02*
Y55870D01*
X37630Y321000D02*
X41370D01*
X39500Y319130D02*
Y322870D01*
X52130Y321000D02*
X55870D01*
X54000Y319130D02*
Y322870D01*
X246630Y276500D02*
X250370D01*
X248500Y274630D02*
Y278370D01*
X77531Y175000D02*
X81468D01*
X79500Y173031D02*
Y176969D01*
X132630Y116059D02*
X136370D01*
X134500Y114189D02*
Y117929D01*
X40630Y181000D02*
X44370D01*
X42500Y179130D02*
Y182870D01*
X121559Y125630D02*
Y129370D01*
X119689Y127500D02*
X123429D01*
X199031Y129350D02*
X202969D01*
X201000Y127382D02*
Y131319D01*
X185630Y131500D02*
X189370D01*
X187500Y129630D02*
Y133370D01*
X103130Y166657D02*
X106870D01*
X105000Y164787D02*
Y168528D01*
X116532Y166000D02*
X120468D01*
X118500Y164032D02*
Y167968D01*
X128130Y141342D02*
X131870D01*
X130000Y139472D02*
Y143213D01*
X52630Y180000D02*
X56370D01*
X54500Y178130D02*
Y181870D01*
X186130Y146343D02*
X189870D01*
X188000Y144472D02*
Y148213D01*
X198531Y146850D02*
X202468D01*
X200500Y144882D02*
Y148819D01*
X103130Y182000D02*
X106870D01*
X105000Y180130D02*
Y183870D01*
D97*
X174315Y263547D02*
Y269453D01*
X163685Y263547D02*
Y269453D01*
Y263547D02*
X174315D01*
X163685Y269453D02*
X174315D01*
X188740Y254500D02*
Y269500D01*
X181260Y254500D02*
Y269500D01*
X188740D01*
X181260Y254500D02*
X188740D01*
X363579Y289610D02*
Y303390D01*
X348421Y289610D02*
Y303390D01*
Y289610D02*
X363579D01*
X348421Y303390D02*
X363579D01*
X232815Y60547D02*
Y66453D01*
X222185Y60547D02*
Y66453D01*
Y60547D02*
X232815D01*
X222185Y66453D02*
X232815D01*
X163126Y67547D02*
Y73453D01*
X173756Y67547D02*
Y73453D01*
X163126D02*
X173756D01*
X163126Y67547D02*
X173756D01*
X158185Y60047D02*
Y65953D01*
X168815Y60047D02*
Y65953D01*
X158185D02*
X168815D01*
X158185Y60047D02*
X168815D01*
X284047Y34685D02*
X289953D01*
X284047Y45315D02*
X289953D01*
X284047Y34685D02*
Y45315D01*
X289953Y34685D02*
Y45315D01*
X480547Y44185D02*
Y54815D01*
X486453Y44185D02*
Y54815D01*
X480547Y44185D02*
X486453D01*
X480547Y54815D02*
X486453D01*
X472740Y136307D02*
Y149693D01*
X465260Y136307D02*
Y149693D01*
X472740D01*
X465260Y136307D02*
X472740D01*
X513547Y344185D02*
Y354815D01*
X519453Y344185D02*
Y354815D01*
X513547Y344185D02*
X519453D01*
X513547Y354815D02*
X519453D01*
X482047Y198815D02*
X487953D01*
X482047Y188185D02*
X487953D01*
Y198815D01*
X482047Y188185D02*
Y198815D01*
X482905Y211169D02*
Y219831D01*
X471095Y211169D02*
Y219831D01*
Y211169D02*
X482905D01*
X471095Y219831D02*
X482905D01*
X406465Y153669D02*
Y162331D01*
X394654Y153669D02*
Y162331D01*
Y153669D02*
X406465D01*
X394654Y162331D02*
X406465D01*
X495890Y21969D02*
Y43031D01*
X482110Y21969D02*
Y43031D01*
X495890D01*
X482110Y21969D02*
X495890D01*
X66177Y85697D02*
X100823D01*
X66177Y35303D02*
X100823D01*
Y85697D01*
X66177Y35303D02*
Y85697D01*
X51047Y162185D02*
X56953D01*
X51047Y172815D02*
X56953D01*
X51047Y162185D02*
Y172815D01*
X56953Y162185D02*
Y172815D01*
X93047Y344185D02*
X98953D01*
X93047Y354815D02*
X98953D01*
X93047Y344185D02*
Y354815D01*
X98953Y344185D02*
Y354815D01*
X112047Y342185D02*
X117953D01*
X112047Y352815D02*
X117953D01*
X112047Y342185D02*
Y352815D01*
X117953Y342185D02*
Y352815D01*
X133547Y342185D02*
X139453D01*
X133547Y352815D02*
X139453D01*
X133547Y342185D02*
Y352815D01*
X139453Y342185D02*
Y352815D01*
X139740Y362866D02*
Y377866D01*
X132260Y362866D02*
Y377866D01*
X139740D01*
X132260Y362866D02*
X139740D01*
X111760Y363366D02*
X119240D01*
X111760Y378366D02*
X119240D01*
X111760Y363366D02*
Y378366D01*
X119240Y363366D02*
Y378366D01*
X100240Y363366D02*
Y378366D01*
X92760Y363366D02*
Y378366D01*
X100240D01*
X92760Y363366D02*
X100240D01*
X19677Y162862D02*
X32323D01*
X19677Y158138D02*
X32323D01*
X19677D02*
Y162862D01*
X32323Y158138D02*
Y162862D01*
X407047Y141815D02*
X412953D01*
X407047Y131185D02*
X412953D01*
Y141815D01*
X407047Y131185D02*
Y141815D01*
X366185Y277547D02*
Y283453D01*
X376815Y277547D02*
Y283453D01*
X366185D02*
X376815D01*
X366185Y277547D02*
X376815D01*
X20843Y191953D02*
X31472D01*
X20843Y186047D02*
X31472D01*
X20843D02*
Y191953D01*
X31472Y186047D02*
Y191953D01*
X31315Y176547D02*
Y182453D01*
X20685Y176547D02*
Y182453D01*
Y176547D02*
X31315D01*
X20685Y182453D02*
X31315D01*
X31157Y166547D02*
Y172453D01*
X20528Y166547D02*
Y172453D01*
Y166547D02*
X31157D01*
X20528Y172453D02*
X31157D01*
X496390Y201197D02*
Y216354D01*
X482610Y201197D02*
Y216354D01*
X496390D01*
X482610Y201197D02*
X496390D01*
X490547Y187685D02*
X496453D01*
X490547Y198315D02*
X496453D01*
X490547Y187685D02*
Y198315D01*
X496453Y187685D02*
Y198315D01*
X144032Y128224D02*
X172968D01*
X144032Y149878D02*
X172968D01*
Y128224D02*
Y149878D01*
X144032Y128224D02*
Y149878D01*
X556547Y194185D02*
Y204815D01*
X562453Y194185D02*
Y204815D01*
X556547Y194185D02*
X562453D01*
X556547Y204815D02*
X562453D01*
X464453Y116185D02*
Y126815D01*
X458547Y116185D02*
Y126815D01*
X464453D01*
X458547Y116185D02*
X464453D01*
X469047Y116185D02*
X474953D01*
X469047Y126815D02*
X474953D01*
X469047Y116185D02*
Y126815D01*
X474953Y116185D02*
Y126815D01*
X458547Y104185D02*
X464453D01*
X458547Y114815D02*
X464453D01*
X458547Y104185D02*
Y114815D01*
X464453Y104185D02*
Y114815D01*
X174315Y254547D02*
Y260453D01*
X163685Y254547D02*
Y260453D01*
Y254547D02*
X174315D01*
X163685Y260453D02*
X174315D01*
X231547Y271528D02*
X237453D01*
X231547Y282157D02*
X237453D01*
X231547Y271528D02*
Y282157D01*
X237453Y271528D02*
Y282157D01*
X168000Y273260D02*
Y280740D01*
X183000Y273260D02*
Y280740D01*
X168000D02*
X183000D01*
X168000Y273260D02*
X183000D01*
X328547Y44185D02*
X334453D01*
X328547Y54815D02*
X334453D01*
X328547Y44185D02*
Y54815D01*
X334453Y44185D02*
Y54815D01*
X451547D02*
X457453D01*
X451547Y44185D02*
X457453D01*
Y54815D01*
X451547Y44185D02*
Y54815D01*
X557110Y208197D02*
X570890D01*
X557110Y223354D02*
X570890D01*
X557110Y208197D02*
Y223354D01*
X570890Y208197D02*
Y223354D01*
X407110Y143697D02*
X420890D01*
X407110Y158854D02*
X420890D01*
X407110Y143697D02*
Y158854D01*
X420890Y143697D02*
Y158854D01*
X571953Y194685D02*
Y205315D01*
X566047Y194685D02*
Y205315D01*
X571953D01*
X566047Y194685D02*
X571953D01*
X549953Y193685D02*
Y204315D01*
X544047Y193685D02*
Y204315D01*
X549953D01*
X544047Y193685D02*
X549953D01*
X367185Y302953D02*
X377815D01*
X367185Y297047D02*
X377815D01*
X367185D02*
Y302953D01*
X377815Y297047D02*
Y302953D01*
X366685Y295953D02*
X377315D01*
X366685Y290047D02*
X377315D01*
X366685D02*
Y295953D01*
X377315Y290047D02*
Y295953D01*
X553905Y218169D02*
Y226831D01*
X542095Y218169D02*
Y226831D01*
Y218169D02*
X553905D01*
X542095Y226831D02*
X553905D01*
X345169Y288465D02*
X353831D01*
X345169Y276654D02*
X353831D01*
Y288465D01*
X345169Y276654D02*
Y288465D01*
X468890Y20968D02*
Y42031D01*
X455110Y20968D02*
Y42031D01*
X468890D01*
X455110Y20968D02*
X468890D01*
X488185Y44547D02*
Y50453D01*
X498815Y44547D02*
Y50453D01*
X488185D02*
X498815D01*
X488185Y44547D02*
X498815D01*
X396547Y131185D02*
X402453D01*
X396547Y141815D02*
X402453D01*
X396547Y131185D02*
Y141815D01*
X402453Y131185D02*
Y141815D01*
X416047Y131185D02*
X421953D01*
X416047Y141815D02*
X421953D01*
X416047Y131185D02*
Y141815D01*
X421953Y131185D02*
Y141815D01*
X460685Y42547D02*
Y48453D01*
X471315Y42547D02*
Y48453D01*
X460685D02*
X471315D01*
X460685Y42547D02*
X471315D01*
X519457Y11264D02*
X526543D01*
X519457Y26618D02*
X526543D01*
X519457Y11264D02*
Y26618D01*
X526543Y11264D02*
Y26618D01*
X90177Y71303D02*
X124823D01*
X90177Y121697D02*
X124823D01*
X90177Y71303D02*
Y121697D01*
X124823Y71303D02*
Y121697D01*
X78323Y71303D02*
Y121697D01*
X43677Y71303D02*
Y121697D01*
X78323D01*
X43677Y71303D02*
X78323D01*
X479272Y110213D02*
Y155488D01*
X546398Y110213D02*
Y155488D01*
X479272D02*
X546398D01*
X479272Y110213D02*
X546398D01*
X443760Y113807D02*
X451240D01*
X443760Y127193D02*
X451240D01*
X443760Y113807D02*
Y127193D01*
X451240Y113807D02*
Y127193D01*
X296147Y33500D02*
X326856D01*
X296147Y55500D02*
X326856D01*
Y33500D02*
Y55500D01*
X296147Y33500D02*
Y55500D01*
X216685Y74453D02*
X227315D01*
X216685Y68547D02*
X227315D01*
X216685D02*
Y74453D01*
X227315Y68547D02*
Y74453D01*
X192610Y241331D02*
Y282669D01*
Y241331D02*
X221390D01*
Y282669D01*
X192610D02*
X221390D01*
X290453Y48685D02*
Y59315D01*
X284547Y48685D02*
Y59315D01*
X290453D01*
X284547Y48685D02*
X290453D01*
X42453Y315685D02*
Y326315D01*
X36547Y315685D02*
Y326315D01*
X42453D01*
X36547Y315685D02*
X42453D01*
X56953D02*
Y326315D01*
X51047Y315685D02*
Y326315D01*
X56953D01*
X51047Y315685D02*
X56953D01*
X251453Y271185D02*
Y281815D01*
X245547Y271185D02*
Y281815D01*
X251453D01*
X245547Y271185D02*
X251453D01*
X65031Y164173D02*
Y185827D01*
X93968Y164173D02*
Y185827D01*
X65031D02*
X93968D01*
X65031Y164173D02*
X93968D01*
X131547Y110744D02*
Y121374D01*
X137453Y110744D02*
Y121374D01*
X131547Y110744D02*
X137453D01*
X131547Y121374D02*
X137453D01*
X39547Y175685D02*
Y186315D01*
X45453Y175685D02*
Y186315D01*
X39547Y175685D02*
X45453D01*
X39547Y186315D02*
X45453D01*
X116244Y130453D02*
X126874D01*
X116244Y124547D02*
X126874D01*
X116244D02*
Y130453D01*
X126874Y124547D02*
Y130453D01*
X204740Y122658D02*
Y136043D01*
X197260Y122658D02*
Y136043D01*
X204740D01*
X197260Y122658D02*
X204740D01*
X190453Y126185D02*
Y136815D01*
X184547Y126185D02*
Y136815D01*
X190453D01*
X184547Y126185D02*
X190453D01*
X107953Y161343D02*
Y171972D01*
X102047Y161343D02*
Y171972D01*
X107953D01*
X102047Y161343D02*
X107953D01*
X122240Y159307D02*
Y172693D01*
X114760Y159307D02*
Y172693D01*
X122240D01*
X114760Y159307D02*
X122240D01*
X127047Y136028D02*
Y146658D01*
X132953Y136028D02*
Y146658D01*
X127047Y136028D02*
X132953D01*
X127047Y146658D02*
X132953D01*
X57453Y174685D02*
Y185315D01*
X51547Y174685D02*
Y185315D01*
X57453D01*
X51547Y174685D02*
X57453D01*
X190953Y141028D02*
Y151657D01*
X185047Y141028D02*
Y151657D01*
X190953D01*
X185047Y141028D02*
X190953D01*
X196760Y140157D02*
Y153543D01*
X204240Y140157D02*
Y153543D01*
X196760Y140157D02*
X204240D01*
X196760Y153543D02*
X204240D01*
X107953Y176685D02*
Y187315D01*
X102047Y176685D02*
Y187315D01*
X107953D01*
X102047Y176685D02*
X107953D01*
M02*
