G04*
G04 #@! TF.GenerationSoftware,Altium Limited,Altium Designer,22.5.1 (42)*
G04*
G04 Layer_Color=255*
%FSLAX25Y25*%
%MOIN*%
G70*
G04*
G04 #@! TF.SameCoordinates,12F1D17F-3755-47B3-A83E-197F31224518*
G04*
G04*
G04 #@! TF.FilePolarity,Positive*
G04*
G01*
G75*
%ADD84C,0.06000*%
%ADD85R,0.05906X0.05906*%
%ADD86C,0.05906*%
%ADD87C,0.07500*%
%ADD88R,0.07500X0.07500*%
%ADD89O,0.03543X0.06299*%
%ADD90R,0.05906X0.05906*%
D84*
X22500Y132087D02*
D03*
Y100000D02*
D03*
Y64567D02*
D03*
Y111811D02*
D03*
Y123622D02*
D03*
Y88189D02*
D03*
Y56102D02*
D03*
Y76378D02*
D03*
X572000Y137276D02*
D03*
Y105189D02*
D03*
Y69756D02*
D03*
Y117000D02*
D03*
Y128811D02*
D03*
Y93378D02*
D03*
Y61291D02*
D03*
Y81567D02*
D03*
X576772Y379921D02*
D03*
X297811Y333000D02*
D03*
X318087D02*
D03*
X286000D02*
D03*
X250567D02*
D03*
X262378D02*
D03*
X309622D02*
D03*
X274189D02*
D03*
X242102D02*
D03*
X298933Y370500D02*
D03*
X319209D02*
D03*
X287122D02*
D03*
X251689D02*
D03*
X263500D02*
D03*
X310744D02*
D03*
X275311D02*
D03*
X243224D02*
D03*
X289000Y158000D02*
D03*
Y99500D02*
D03*
X13780Y13780D02*
D03*
X576772D02*
D03*
X13780Y379921D02*
D03*
D85*
X334500Y94000D02*
D03*
X565500Y303000D02*
D03*
D86*
X334500Y104000D02*
D03*
Y114000D02*
D03*
Y124000D02*
D03*
Y134000D02*
D03*
Y144000D02*
D03*
Y154000D02*
D03*
Y164000D02*
D03*
X292500Y274000D02*
D03*
Y294000D02*
D03*
X322500Y274000D02*
D03*
Y294000D02*
D03*
X332500Y274000D02*
D03*
Y294000D02*
D03*
X469000Y268500D02*
D03*
X489000D02*
D03*
X469000Y238500D02*
D03*
X489000D02*
D03*
X469000Y228500D02*
D03*
X489000D02*
D03*
X553000Y234500D02*
D03*
X533000D02*
D03*
X553000Y244500D02*
D03*
X533000D02*
D03*
X553000Y274500D02*
D03*
X533000D02*
D03*
X565500Y323000D02*
D03*
Y313000D02*
D03*
X386500Y214000D02*
D03*
X406500D02*
D03*
X386500Y184000D02*
D03*
X406500D02*
D03*
X386500Y174000D02*
D03*
X406500D02*
D03*
X482500Y13000D02*
D03*
X472500D02*
D03*
X462500D02*
D03*
D87*
X209500Y358600D02*
D03*
X358000Y357100D02*
D03*
X392000Y357000D02*
D03*
X425500Y356500D02*
D03*
X457500D02*
D03*
D88*
X209500Y370400D02*
D03*
X358000Y368900D02*
D03*
X392000Y368800D02*
D03*
X425500Y368300D02*
D03*
X457500D02*
D03*
D89*
X498732Y378000D02*
D03*
X524717D02*
D03*
D90*
X452500Y13000D02*
D03*
M02*
