M48
;Layer_Color=9474304
;FILE_FORMAT=2:5
INCH,TZ
;TYPE=PLATED
T1F00S00C0.00787
T2F00S00C0.01181
T3F00S00C0.01968
T5F00S00C0.03543
T6F00S00C0.03937
T7F00S00C0.04016
T8F00S00C0.05000
T9F00S00C0.09488
T10F00S00C0.10433
%
T01
X104669Y369216
Y373547
X109000
Y369216
X113331
Y373547
Y377878
X109000
X104669
T02
X418000Y81000
X440076Y89923
X454500Y148000
X455000Y205500
X386500Y197500
X298500Y205500
X240000Y138500
X233500Y133000
X228000Y103000
X219500Y77000
X185343Y80500
X167000Y81000
X152000Y79000
X191500Y103000
Y119500
X179000Y174000
X153000Y167500
X144000Y153000
X125500Y167000
X119000Y180000
X98500Y191000
X78000Y190000
X61500Y186500
Y172500
X64000Y144819
X94000Y154000
X102000Y127000
X83000Y212000
X152500Y208378
X209122Y186948
X38500Y191622
X42543Y211457
X27500Y210500
X45527Y121122
X45000Y299500
Y305000
X34836Y300164
X28000Y314500
X43500Y328500
X50000
X75500Y327000
X91000
X90500Y317000
Y299000
X109000Y291500
X120000Y295500
X138500Y313622
X164500Y304500
X164000Y323500
X198500Y331000
X209500Y327500
X136500Y354500
Y358500
X112000
X108000
X95000Y354500
X60500Y307500
X87000Y234500
X75622Y216312
X140000Y241500
X150500
X151000Y251500
X246000Y227500
X260500
X265500Y222000
X298500Y244000
Y249500
X403000Y259500
X417000Y264000
X423000Y238500
X423917Y308500
X500000Y278000
X504500Y232500
X532000Y262500
X93500Y377500
T03
X25984Y10236
X41732
X49606Y25984
X33858
X18110
X10236Y41732
X25984
X57480Y10236
X73228
X88976
X104724
X120472
X136221
X144095Y25984
X128346
X136221Y41732
X104724
X183465
X199213
X207087Y25984
X191339
X175591
X254331
X270079
X285827
X301575
X317323
X333071
X348819
X364567
X356693Y41732
X340945
X325197
X309449
X293701
X277953
X262205
X246457
X262205Y10236
X277953
X293701
X309449
X325197
X340945
X356693
X372441
X388189
X403937
X419685
X435433
X451181
X466929
X482677
X498425
X514173
X522047Y25984
X506299
X490551
X474803
X459055
X443307
X427559
X411811
X396063
X380315
X372441Y41732
X388189
X403937
X419685
X435433
X451181
X466929
X482677
X498425
X514173
X529921
X545669
X561417
X577165
X569291Y25984
X553543
X537795
X529921Y10236
X545669
X561417
X553543Y57480
X537795
X553543Y88976
X561417Y104724
X541733Y112599
X533859
X525985
X529922Y151969
X537796
X541733Y159843
X533859
X525985
X561417Y167717
X577165
X569291Y183465
Y151969
X522048Y151969
X514174
X506299
X510237Y159843
X518111
X502362
X494488
X486615
X478741
X470866
X462992
X455118
X459055Y136221
X439370Y144095
X419685Y136221
X403937
X388189
X372441
X380315Y151969
X396063
X411811
X403937Y167717
X419685
X427559Y183465
X411811
X396063
X380315
X372441Y167717
X388189
X396063Y120472
X411811
X403937Y104724
X419685
X388189
X380315Y120472
X372441Y73228
X427559Y57480
X443307
X459055
X474803
X490551
X506299
X522047
X518111Y112599
X510237
X502362
X506299Y120473
X502362Y128347
X506299Y136221
X502362Y144095
X466929Y199213
X364567Y183465
X348819
X333071
X317323
X301575
X285827
X270079
X254331
X238583
X230709Y167717
X246457
X262205
X277953
X270079Y151969
X254331
X238583
X246457Y104724
X262205
X277953
X309449
Y73228
X325197
X340945
X356693
X364567Y88976
X348819
X356693Y136221
X364567Y151969
X348819
X356693Y167717
X325197
X309449
X317323Y151969
X301575
X309449Y199213
X325197
X340945
X293701Y73228
X277953
X262205
X246457
X222835Y88976
X167717Y104724
X175591Y120472
X159843
X144095Y88976
X128346
X120472Y73228
X136221
X112598Y57480
X96850
X65354
X73228Y104724
X88976
X120472
X112598Y151969
X144095Y183465
X175591
X199213Y167717
X57480Y136221
X33858Y151969
X18110
X41732Y167717
Y73228
X49606Y57480
X10236Y73228
X18110Y214961
Y309449
X10236Y325197
X18110Y340945
X10236Y356693
X65354Y277953
X128346
X120472Y262205
X167717
X183465
X199213
X207087Y277953
X191339
X175591
X183465Y293701
X199213
X191339Y340945
X175591
X159843
X183465Y356693
X136221Y293701
X214961
X230709
X238583Y277953
X222835
X214961Y262205
X230709
X246457
X262205
X270079Y277953
X285827
X301575Y279520
X293701Y293701
X277953
X262205
X254331Y246457
X238583
X285827Y214961
X317323
X333071
X364567
X356693Y325197
X333071Y340945
X325197Y356693
X340945
X309449
X372441
X403937
X396063Y340945
X388189Y325197
X372441
X388189Y293701
X411811Y277953
Y246457
X443307
X435433Y262205
Y230709
X474803Y277953
X466929Y325197
X482677
X498425
Y356693
X514173
X522047Y340945
X482677Y356693
X451181Y325197
X435433
X443307Y309449
X529921Y325197
X545669
X553543Y340945
X569291
X561417Y356693
X577165
Y325197
Y293701
X569291Y277953
X561417Y262205
X545669
X553543Y246457
X569291
X561417Y230709
X577165
Y262205
X539624Y279781
X544232Y295138
X537795Y340945
X529921Y356693
X545669
X553543Y372441
X537795
X522047
X506299
X490551
X474803
X443307
X411811
X333071
X222835
X191339
X49606
X33858
T05
X334500Y94000
Y104000
Y114000
Y124000
Y134000
Y144000
Y154000
Y164000
X565500Y303000
Y313000
Y323000
T06
X310500Y259500
Y269500
X330500
Y259500
Y299500
X310500
X375000Y235000
X385000
Y215000
X375000
X415000
Y235000
X470500Y238000
Y228000
X490500
Y238000
Y268000
X470500
X496000Y288500
X506000
Y308500
X496000
X536000
Y288500
T07
X572000Y69756
Y81567
Y93378
Y105189
Y117000
Y128811
X22500Y123622
Y111811
Y100000
Y88189
Y76378
Y64567
X250567Y333000
X262378
X274189
X286000
X297811
X309622
X310744Y370500
X298933
X287122
X275311
X263500
X251689
T08
X201800Y346800
X209500Y358600
X358000Y357100
X350300Y345300
X384300Y345200
X392000Y357000
X425500Y356500
Y368300
X417800Y344700
X449800
X457500Y356500
Y368300
X449800Y380100
X417800
X384300Y380600
X392000Y368800
X358000Y368900
X350300Y380700
X201800Y382200
X209500Y370400
T09
X22500Y56102
X572000Y61291
Y137276
X22500Y132087
X242102Y333000
X318087
X319209Y370500
X243224
T10
X13780Y13780
X576772
X289000Y99500
Y158000
X576772Y379921
X13780
M30
