G04*
G04 #@! TF.GenerationSoftware,Altium Limited,Altium Designer,22.6.1 (34)*
G04*
G04 Layer_Color=8421504*
%FSLAX25Y25*%
%MOIN*%
G70*
G04*
G04 #@! TF.SameCoordinates,6A208CF9-6890-4570-AF2D-44DF40791D0C*
G04*
G04*
G04 #@! TF.FilePolarity,Positive*
G04*
G01*
G75*
%ADD21R,0.03347X0.03740*%
%ADD22R,0.04724X0.04724*%
%ADD23R,0.03543X0.07874*%
%ADD24R,0.07874X0.03543*%
%ADD25R,0.05236X0.05236*%
%ADD26R,0.03937X0.02362*%
%ADD27R,0.07480X0.07087*%
G04:AMPARAMS|DCode=28|XSize=62.99mil|YSize=55.12mil|CornerRadius=13.78mil|HoleSize=0mil|Usage=FLASHONLY|Rotation=180.000|XOffset=0mil|YOffset=0mil|HoleType=Round|Shape=RoundedRectangle|*
%AMROUNDEDRECTD28*
21,1,0.06299,0.02756,0,0,180.0*
21,1,0.03543,0.05512,0,0,180.0*
1,1,0.02756,-0.01772,0.01378*
1,1,0.02756,0.01772,0.01378*
1,1,0.02756,0.01772,-0.01378*
1,1,0.02756,-0.01772,-0.01378*
%
%ADD28ROUNDEDRECTD28*%
%ADD29O,0.01575X0.05315*%
%ADD30R,0.03543X0.03937*%
G04:AMPARAMS|DCode=31|XSize=55.12mil|YSize=82.68mil|CornerRadius=13.78mil|HoleSize=0mil|Usage=FLASHONLY|Rotation=0.000|XOffset=0mil|YOffset=0mil|HoleType=Round|Shape=RoundedRectangle|*
%AMROUNDEDRECTD31*
21,1,0.05512,0.05512,0,0,0.0*
21,1,0.02756,0.08268,0,0,0.0*
1,1,0.02756,0.01378,-0.02756*
1,1,0.02756,-0.01378,-0.02756*
1,1,0.02756,-0.01378,0.02756*
1,1,0.02756,0.01378,0.02756*
%
%ADD31ROUNDEDRECTD31*%
%ADD32R,0.03740X0.03347*%
%ADD33R,0.03937X0.03543*%
%ADD34R,0.05512X0.05118*%
%ADD35R,0.02008X0.01575*%
%ADD36O,0.01378X0.03937*%
%ADD37R,0.09055X0.17913*%
%ADD38R,0.03150X0.01968*%
%ADD39R,0.02362X0.03937*%
%ADD40O,0.05709X0.02362*%
%ADD41R,0.04724X0.04724*%
%ADD42R,0.01575X0.02008*%
%ADD43R,0.04331X0.07874*%
%ADD44R,0.03150X0.03150*%
G04:AMPARAMS|DCode=45|XSize=39.37mil|YSize=137.8mil|CornerRadius=1.97mil|HoleSize=0mil|Usage=FLASHONLY|Rotation=90.000|XOffset=0mil|YOffset=0mil|HoleType=Round|Shape=RoundedRectangle|*
%AMROUNDEDRECTD45*
21,1,0.03937,0.13386,0,0,90.0*
21,1,0.03543,0.13780,0,0,90.0*
1,1,0.00394,0.06693,0.01772*
1,1,0.00394,0.06693,-0.01772*
1,1,0.00394,-0.06693,-0.01772*
1,1,0.00394,-0.06693,0.01772*
%
%ADD45ROUNDEDRECTD45*%
G04:AMPARAMS|DCode=46|XSize=228.35mil|YSize=303.15mil|CornerRadius=2.28mil|HoleSize=0mil|Usage=FLASHONLY|Rotation=90.000|XOffset=0mil|YOffset=0mil|HoleType=Round|Shape=RoundedRectangle|*
%AMROUNDEDRECTD46*
21,1,0.22835,0.29858,0,0,90.0*
21,1,0.22378,0.30315,0,0,90.0*
1,1,0.00457,0.14929,0.11189*
1,1,0.00457,0.14929,-0.11189*
1,1,0.00457,-0.14929,-0.11189*
1,1,0.00457,-0.14929,0.11189*
%
%ADD46ROUNDEDRECTD46*%
%ADD47O,0.04961X0.01417*%
G04:AMPARAMS|DCode=48|XSize=51.58mil|YSize=24.41mil|CornerRadius=3.05mil|HoleSize=0mil|Usage=FLASHONLY|Rotation=0.000|XOffset=0mil|YOffset=0mil|HoleType=Round|Shape=RoundedRectangle|*
%AMROUNDEDRECTD48*
21,1,0.05158,0.01831,0,0,0.0*
21,1,0.04547,0.02441,0,0,0.0*
1,1,0.00610,0.02274,-0.00915*
1,1,0.00610,-0.02274,-0.00915*
1,1,0.00610,-0.02274,0.00915*
1,1,0.00610,0.02274,0.00915*
%
%ADD48ROUNDEDRECTD48*%
D21*
X171559Y266500D02*
D03*
X166441D02*
D03*
X165882Y70500D02*
D03*
X171000D02*
D03*
X171559Y257500D02*
D03*
X166441D02*
D03*
X369941Y300000D02*
D03*
X375059D02*
D03*
X369441Y293000D02*
D03*
X374559D02*
D03*
X490941Y47500D02*
D03*
X496059D02*
D03*
X463441Y45500D02*
D03*
X468559D02*
D03*
X219441Y71500D02*
D03*
X224559D02*
D03*
X119000Y127500D02*
D03*
X124118D02*
D03*
D22*
X185000Y266134D02*
D03*
Y257866D02*
D03*
X136000Y374500D02*
D03*
Y366232D02*
D03*
X115500Y366732D02*
D03*
Y375000D02*
D03*
X96500D02*
D03*
Y366732D02*
D03*
D23*
X30000Y224571D02*
D03*
X35000D02*
D03*
X40000D02*
D03*
X45000D02*
D03*
X50000D02*
D03*
X55000D02*
D03*
X60000D02*
D03*
X65000D02*
D03*
X70000D02*
D03*
X75000D02*
D03*
X80000D02*
D03*
X85000D02*
D03*
X90000D02*
D03*
X95000D02*
D03*
Y291500D02*
D03*
X90000D02*
D03*
X85000D02*
D03*
X80000D02*
D03*
X75000D02*
D03*
X70000D02*
D03*
X65000D02*
D03*
X60000D02*
D03*
X55000D02*
D03*
X50000D02*
D03*
X45000D02*
D03*
X40000D02*
D03*
X35000D02*
D03*
X30000D02*
D03*
D24*
X98937Y235535D02*
D03*
Y240535D02*
D03*
Y245535D02*
D03*
Y250535D02*
D03*
Y255535D02*
D03*
Y260535D02*
D03*
Y265535D02*
D03*
Y270535D02*
D03*
Y275535D02*
D03*
Y280535D02*
D03*
D25*
X52303Y246874D02*
D03*
Y254098D02*
D03*
Y261323D02*
D03*
X59528Y246874D02*
D03*
Y254098D02*
D03*
Y261323D02*
D03*
X66752Y246874D02*
D03*
Y254098D02*
D03*
Y261323D02*
D03*
D26*
X360724Y292760D02*
D03*
Y300240D02*
D03*
X351276Y296500D02*
D03*
D27*
X507000Y378000D02*
D03*
X516449D02*
D03*
D28*
X499126Y368354D02*
D03*
X524323D02*
D03*
D29*
X511724Y367469D02*
D03*
X514284D02*
D03*
X516843D02*
D03*
X506606D02*
D03*
X509165D02*
D03*
D30*
X230157Y63500D02*
D03*
X224843D02*
D03*
X160843Y63000D02*
D03*
X166157D02*
D03*
X368843Y280500D02*
D03*
X374158D02*
D03*
X23500Y189000D02*
D03*
X28815D02*
D03*
X28657Y179500D02*
D03*
X23343D02*
D03*
X28500Y169500D02*
D03*
X23185D02*
D03*
D31*
X184358Y17087D02*
D03*
X166642D02*
D03*
Y52913D02*
D03*
X184358D02*
D03*
X242000Y53827D02*
D03*
X224284D02*
D03*
Y18000D02*
D03*
X242000D02*
D03*
D32*
X287000Y37441D02*
D03*
Y42559D02*
D03*
X516500Y346941D02*
D03*
Y352059D02*
D03*
X54000Y164941D02*
D03*
Y170059D02*
D03*
X96000Y346941D02*
D03*
Y352059D02*
D03*
X115000Y344941D02*
D03*
Y350059D02*
D03*
X136500Y344941D02*
D03*
Y350059D02*
D03*
X493500Y190441D02*
D03*
Y195559D02*
D03*
X472000Y118941D02*
D03*
Y124059D02*
D03*
X461500Y106941D02*
D03*
Y112059D02*
D03*
X569000Y202559D02*
D03*
Y197441D02*
D03*
X547000Y201559D02*
D03*
Y196441D02*
D03*
X399500Y133941D02*
D03*
Y139059D02*
D03*
X419000Y133941D02*
D03*
Y139059D02*
D03*
X287500Y56559D02*
D03*
Y51441D02*
D03*
X39500Y323559D02*
D03*
Y318441D02*
D03*
X54000Y323559D02*
D03*
Y318441D02*
D03*
X134500Y113500D02*
D03*
Y118618D02*
D03*
X42500Y178441D02*
D03*
Y183559D02*
D03*
D33*
X483500Y46843D02*
D03*
Y52157D02*
D03*
X485000Y196158D02*
D03*
Y190842D02*
D03*
X410000Y139157D02*
D03*
Y133843D02*
D03*
X559500Y196843D02*
D03*
Y202157D02*
D03*
X461500Y124158D02*
D03*
Y118842D02*
D03*
X234500Y274185D02*
D03*
Y279500D02*
D03*
X331500Y46843D02*
D03*
Y52157D02*
D03*
X454500D02*
D03*
Y46843D02*
D03*
X248500Y279157D02*
D03*
Y273843D02*
D03*
X187500Y134158D02*
D03*
Y128842D02*
D03*
X105000Y169315D02*
D03*
Y164000D02*
D03*
X130000Y138685D02*
D03*
Y144000D02*
D03*
X54500Y182658D02*
D03*
Y177342D02*
D03*
X188000Y149000D02*
D03*
Y143685D02*
D03*
X105000Y184658D02*
D03*
Y179342D02*
D03*
D34*
X469000Y146150D02*
D03*
Y139850D02*
D03*
X447500Y117350D02*
D03*
Y123650D02*
D03*
X201000Y132500D02*
D03*
Y126201D02*
D03*
X118500Y169150D02*
D03*
Y162850D02*
D03*
X200500Y143701D02*
D03*
Y150000D02*
D03*
D35*
X479559Y213531D02*
D03*
Y217469D02*
D03*
X474441Y215500D02*
D03*
X403118Y156032D02*
D03*
Y159968D02*
D03*
X398000Y158000D02*
D03*
X550559Y220532D02*
D03*
Y224468D02*
D03*
X545441Y222500D02*
D03*
D36*
X492839Y40177D02*
D03*
X490279D02*
D03*
X487720D02*
D03*
X485161D02*
D03*
X492839Y24823D02*
D03*
X490279D02*
D03*
X487720D02*
D03*
X485161D02*
D03*
X465839Y39177D02*
D03*
X463279D02*
D03*
X460720D02*
D03*
X458161D02*
D03*
X465839Y23823D02*
D03*
X463279D02*
D03*
X460720D02*
D03*
X458161D02*
D03*
D37*
X83500Y75461D02*
D03*
Y45539D02*
D03*
X107500Y81539D02*
D03*
Y111461D02*
D03*
X61000D02*
D03*
Y81539D02*
D03*
D38*
X22457Y160500D02*
D03*
X29543D02*
D03*
D39*
X489500Y213500D02*
D03*
X493240Y204051D02*
D03*
X485760D02*
D03*
X560260Y211051D02*
D03*
X567740D02*
D03*
X564000Y220500D02*
D03*
X410260Y146551D02*
D03*
X417740D02*
D03*
X414000Y156000D02*
D03*
D40*
X169228Y131551D02*
D03*
Y136551D02*
D03*
X169500Y141551D02*
D03*
X169228Y146551D02*
D03*
X147772Y131551D02*
D03*
Y136551D02*
D03*
Y141551D02*
D03*
Y146551D02*
D03*
X68772Y182500D02*
D03*
Y177500D02*
D03*
Y172500D02*
D03*
Y167500D02*
D03*
X90228Y182500D02*
D03*
X90500Y177500D02*
D03*
X90228Y172500D02*
D03*
Y167500D02*
D03*
D41*
X171366Y277000D02*
D03*
X179634D02*
D03*
D42*
X351468Y285118D02*
D03*
X347532D02*
D03*
X349500Y280000D02*
D03*
D43*
X523000Y21500D02*
D03*
D44*
Y14020D02*
D03*
D45*
X488130Y146236D02*
D03*
Y139543D02*
D03*
Y132850D02*
D03*
Y126157D02*
D03*
Y119465D02*
D03*
D46*
X527500Y132850D02*
D03*
D47*
X322917Y36823D02*
D03*
Y39382D02*
D03*
Y41941D02*
D03*
Y44500D02*
D03*
Y47059D02*
D03*
Y49618D02*
D03*
Y52177D02*
D03*
X300083Y36823D02*
D03*
Y39382D02*
D03*
Y41941D02*
D03*
Y44500D02*
D03*
Y47059D02*
D03*
Y49618D02*
D03*
Y52177D02*
D03*
D48*
X196173Y279500D02*
D03*
Y274500D02*
D03*
Y269500D02*
D03*
Y264500D02*
D03*
Y259500D02*
D03*
Y254500D02*
D03*
Y249500D02*
D03*
Y244500D02*
D03*
X217827D02*
D03*
Y249500D02*
D03*
Y254500D02*
D03*
Y259500D02*
D03*
Y264500D02*
D03*
Y269500D02*
D03*
Y274500D02*
D03*
Y279500D02*
D03*
M02*
