M48
;Layer_Color=9474304
;FILE_FORMAT=2:5
INCH,TZ
;TYPE=PLATED
T1F00S00C0.01181
T2F00S00C0.01968
T4F00S00C0.03543
T5F00S00C0.03937
T6F00S00C0.04016
T7F00S00C0.05000
T8F00S00C0.09488
T9F00S00C0.10433
%
T01
X427500Y38500
X474500Y42500
X469500Y20500
X492500Y18500
X499000Y39000
X543000Y76500
X440076Y89923
X441000Y61500
X430500Y56321
X454500Y148000
X455000Y205500
X298500
X218000Y185000
X233500Y133000
X240000Y138500
X228000Y103000
X271500Y57500
X339000Y60500
X185343Y80500
X167000Y81000
X152000Y79000
X191500Y103000
Y119500
X179000Y174000
X153000Y167500
X144000Y153000
X125500Y167000
X119000Y180000
X98500Y191000
X78000Y190000
X79500Y202500
X83000Y212000
X61500Y186500
Y172500
X64000Y144819
X94000Y154000
X102000Y127000
X152500Y208378
X205500Y201000
X212000
X42543Y211457
X27500Y210500
X38500Y191923
X46000Y123500
X45750Y300750
X34836Y300164
X28000Y314500
X60500Y307500
X70000Y303000
X89500Y299500
X88653Y314971
X96000Y330000
X114500Y338000
X136500Y336000
X138500Y316500
X149500Y296000
X164000
X164500Y304500
X164000Y324000
X209500Y327500
X212000Y260000
X206285Y249285
X205500Y228622
X211000Y231500
X150500Y241500
X140000
X151000Y251500
X145000Y264500
X128500Y254500
X116000Y249500
X108000Y267500
X107360Y272000
X112000Y281500
X92622Y256878
X82500Y256000
X87000Y234500
X75622Y216312
X249000Y225000
X265500Y222000
X266500Y262000
X234500Y264500
X226000Y270000
X217500Y287000
Y301000
X268500Y295000
X304500Y315000
X298500Y244000
X347000Y218000
X398500Y235000
X403000Y259500
X428500Y258500
X421000Y218000
X450500Y295500
X462000Y306500
X480285Y318715
X489750Y285750
X540500Y293500
T02
X27953Y8268
X37795
X47638
X52559Y18110
X42717
X32874
X23031
X27953Y27953
X37795
X47638
X42717Y37795
X32874
X23031
X13189
X18110Y47638
X27953
X37795
X8268
Y27953
X18110
X57480
X62402Y18110
X67323Y8268
X77165
X87008
X96850
X106693
X116535
X126378
X136221
X146063
X141142Y18110
X131299
X121457
X111614
X116535Y27953
X126378
X136221
X146063
X155905
X160827Y37795
X170669
X180512
X190354
X200197
X210039
X205118Y47638
X195276
Y27953
X205118
X210039Y18110
X200197
X190354
X185433Y27953
X175591
Y47638
X155905
X146063
X136221
X141142Y37795
X131299
X116535Y47638
X106693
X96850
X101772Y37795
X91929
X96850Y27953
X87008
X77165
X72244Y37795
X67323Y47638
X57480
Y8268
X160827Y18110
X214961Y27953
X234646
X244488
X254331
X264173
X274016
X283858
X293701
X303543
X313386
X323228
X333071
X342913
X352756
X362598
X367520Y37795
X357677
X347835
X352756Y47638
X362598
X342913
X313386
X308465Y37795
Y18110
X318307
X328150
X333071Y8268
X342913
X352756
X362598
X367520Y18110
X357677
X347835
X298622
X288779
X278937
X269094
X259252
X249410
Y37795
X259252
X269094
X278937
X274016Y47638
X264173
X254331
X234646
X239567Y37795
X229724
X214961Y47638
Y8268
X293701Y47638
X377362Y37795
X382283Y27953
X392126
X401968
X411811
X421654
X431496
X441339
X451181
X446260Y18110
X436417
X426575
X416732
X406890
X397047
X387205
X377362
X382283Y8268
X392126
X401968
X411811
X421654
X431496
X441339
Y47638
X431496
X421654
X411811
X401968
X392126
X372441Y27953
Y8268
X490551
X500394
X510236
X520079
X515158Y18110
X505315
X510236Y27953
X500394Y47638
X480709Y27953
X470866
X529921
X539764
X549606
X559449
X569291
X579134
X584055Y37795
X574213
X564370
X554528
X544685
X534842
X539764Y47638
X549606
X559449
X569291
X579134
X584055Y18110
X564370
X554528
X544685
X534842
X539764Y8268
X549606
X559449
X569291
X529921
Y47638
X544685Y57480
X554528
X564370
X584055
X579134Y67323
X584055Y77165
Y96850
X579134Y106693
X584055Y116535
X579134Y126378
X584055Y136221
X579134Y146063
X569291
X559449
X564370Y155905
X574213
X584055
X579134Y165748
X569291
X559449
X564370Y175591
X574213
X584055
X579134Y185433
X569291
X574213Y195276
X584055
X579134Y205118
X554528Y195276
Y175591
X544685
X534842
X525000
Y195276
X534842
X554528Y155905
Y136221
X559449Y126378
X564370Y116535
X559449Y106693
X554528Y96850
X544685
X525000
Y77165
X559449Y87008
X569291
X515158Y96850
X505315
X495472
X485630
X475787
X465945
X456102
X446260
Y77165
X456102
X465945
X475787
X485630
X495472
X505315
X515158
X520079Y67323
X510236
X500394
X490551
X480709
X470866
X461024
X451181
X436417Y77165
X426575
X416732
X406890
X397047
X387205
X377362
X382283Y87008
X392126
X401968
X411811
Y67323
X421654
X401968
X392126
X382283
X372441
Y87008
X377362Y116535
X387205
X397047
X406890
X416732
X426575
X421654Y126378
X411811
X401968
X392126
X382283
X372441
X377362Y136221
X387205
X392126Y146063
X401968
X382283
X372441
X377362Y155905
X387205
X397047Y175591
Y195276
X387205
X377362
X382283Y205118
X392126
X401968
X411811
X441339
X461024
X470866
X480709
X475787Y195276
X465945
X456102
Y175591
X465945
X475787
X485630
X495472
X505315
X515158
Y195276
X505315
X441339Y185433
X431496
X436417Y175591
X426575Y155905
Y136221
X421654Y106693
X485630Y57480
X495472
X505315
X515158
X377362Y175591
X367520
X357677
X362598Y185433
X352756
X357677Y195276
X347835
X337992
X328150
X318307
X308465
X298622
X303543Y205118
X313386
X323228
X333071
X342913
X352756
Y165748
X342913
X347835Y155905
X357677
X367520
X362598Y146063
X352756
X342913
X323228
X313386
X303543
X293701
X283858
X274016
X264173
X269094Y155905
X278937
X283858Y165748
X293701
X303543
X313386
X323228
X328150Y175591
X337992
X318307
X308465
X298622
X288779
X278937
X269094
X259252
X249410
X239567
X229724
Y195276
X239567
X249410
X259252
X269094
X274016Y205118
X283858
X274016Y165748
X264173
X254331
X244488
X249410Y155905
X259252
X264173Y126378
X274016
X283858
X293701
X303543
X313386
X323228
Y106693
X313386
X303543
X293701
X283858
X274016
X264173
X269094Y96850
X278937
X283858Y87008
X293701
X303543
X313386
X323228
X333071
X342913
X352756
X362598
X367520Y77165
X357677
Y96850
X347835
X352756Y106693
X342913
X328150Y96850
X318307
X308465
X298622
X269094Y77165
X259252
X249410
X239567
X244488Y87008
X254331
X249410Y96850
X239567
X244488Y106693
Y126378
X214961
Y146063
X219882Y155905
X214961Y165748
X219882Y195276
Y96850
X224803Y87008
X214961
X219882Y77165
X234646Y67323
X244488
X254331
X264173
X274016
X259252Y57480
X249410
X298622Y155905
X308465
X318307
X328150
X357677Y136221
X367520
X362598Y126378
X210039Y116535
X200197
X195276Y126378
X175591
X165748
X155905
X160827Y136221
Y155905
X170669
X180512
X190354
X200197
X210039
X205118Y165748
X195276
X185433
X175591
X165748
Y185433
X175591
X185433
X190354Y195276
X200197
X180512
X170669
X160827
X141142
X131299
X121457
Y175591
X111614
Y155905
X121457
X131299
X116535Y146063
X106693
X101772Y155905
X87008Y146063
X77165
X72244Y155905
X62402
Y136221
X91929
Y116535
X82087
X72244
X77165Y106693
X87008
X96850
X101772Y96850
X111614
X121457
X131299
X141142
X146063Y87008
X136221
X126378
X116535
X121457Y77165
X131299
X141142
X136221Y67323
X126378
X116535
X106693
X96850
X101772Y57480
X111614
X121457
X91929
X82087
X72244
X62402
X67323Y67323
X57480
X72244Y77165
X91929
X96850Y87008
X91929Y96850
X82087
X72244
X62402
X116535Y106693
X126378
X121457Y116535
X141142
X160827
X170669
X180512
X185433Y106693
X175591
X165748
X155905
X160827Y96850
X170669
X180512
X190354
X185433Y87008
X200197Y77165
X210039
Y57480
X200197
X190354
X160827
X155905Y67323
X175591Y146063
X121457Y136221
X136221Y185433
X146063
X47638Y205118
X18110
X8268
X18110Y185433
Y165748
X23031Y155905
X32874
X42717
X47638Y146063
X37795
X27953
X18110
X13189Y136221
X8268Y126378
X13189Y116535
X18110Y106693
X27953
X8268
Y87008
X13189Y77165
X8268Y67323
X13189Y57480
X37795Y67323
X47638
X52559Y77165
X42717
X32874
X47638Y87008
X42717Y96850
X52559Y116535
Y136221
X42717
X37795Y165748
X32874Y175591
X52559Y57480
Y214961
X32874
X23031
X13189
X32874Y234646
Y254331
Y274016
X52559
X18110Y303543
X8268
X13189Y313386
X23031
X18110Y323228
X8268
X13189Y333071
X18110Y342913
X8268
X13189Y352756
X18110Y362598
X8268
X37795
X47638
X52559Y352756
X42717
X32874
X37795Y342913
X47638
X42717Y333071
X32874
X57480Y342913
X67323
X77165
X87008
X82087Y352756
X72244
X62402
X67323Y362598
X77165
X87008
X106693
X101772Y352756
X106693Y342913
X126378
X131299Y352756
X121457
X126378Y362598
X146063
X155905
X165748
X175591
X185433
X195276
X200197Y352756
X190354
X180512
X170669
X160827
X150984
X155905Y342913
X165748
X175591
X185433
X195276
X200197Y333071
X190354
X180512
X170669
X160827
X150984
X146063Y342913
X131299Y333071
X121457
X146063Y303543
X155905
X141142Y293701
X165748Y283858
X160827Y274016
X185433Y283858
X195276
X200197Y293701
X210039
Y274016
X190354Y293701
X180512
X185433Y323228
X175591
X205118
X190354Y254331
X121457Y234646
X116535Y224803
X106693
X87008Y244488
Y264173
X91929Y274016
X82087
X72244
X67323Y283858
X87008
X72244Y254331
X62402Y313386
X57480Y362598
X219882Y352756
X214961Y342913
X229724Y333071
X234646Y323228
X244488
X254331
X264173
Y342913
X274016
X278937Y352756
X293701Y362598
X303543
X313386
X323228
X333071
X342913
X347835Y352756
X337992
X328150
X318307
X308465
X313386Y342913
X323228
X333071
X342913
X337992Y333071
X328150
X333071Y323228
X323228
X313386
X303543
X293701
Y342913
X303543
X293701Y303543
X283858
X278937Y293701
X274016Y283858
X264173
X269094Y274016
X254331Y264173
X244488
X249410Y254331
X259252
X254331Y244488
X244488
X249410Y234646
X259252
X278937
X288779
X293701Y244488
X283858
X274016
X278937Y254331
X288779
X298622
X318307
X328150
X337992
X347835
X357677
X367520
X362598Y264173
X352756
X342913
X347835Y274016
X357677
X367520
X362598Y283858
X342913
X333071
Y303543
X342913
X352756
Y323228
X362598
X367520Y333071
X357677
X362598Y342913
X367520Y352756
X264173Y362598
X254331
Y342913
Y303543
X264173
X244488
Y283858
X239567Y274016
X229724
X224803Y283858
Y303543
X229724Y254331
X239567
Y234646
X229724
X219882
X278937Y214961
X288779
X308465
X318307
X328150
X337992
X357677
X367520
X337992Y234646
X318307
X308465
Y274016
X298622
Y293701
X308465
X323228Y264173
X372441
X382283
X392126
X397047Y274016
X406890
X416732
X411811Y283858
X416732Y293701
X426575
X436417
X441339Y303543
X431496
X421654
X411811
X401968
X392126
X382283
X387205Y293701
X397047
X387205Y274016
X377362
Y254331
X387205
X392126Y244488
X416732Y254331
X411811Y264173
X441339
X451181
X461024
X480709
X485630Y254331
X495472
X500394Y264173
X520079
X515158Y254331
X520079Y244488
X510236
X500394
X490551
X475787Y234646
X480709Y224803
X500394
X510236
X520079
X515158Y214961
X505315
X495472
X456102
X446260
X451181Y224803
X441339
X446260Y234646
X456102
X461024Y244488
X451181
X431496
X436417Y254331
Y274016
X431496Y283858
X451181
X461024
X470866
X480709
X500394
X505315Y293701
X515158
X520079Y283858
X510236Y303543
X500394
X490551
X480709
X485630Y313386
X495472
X505315
X510236Y323228
X500394
X490551
X495472Y333071
X505315
X510236Y342913
X500394Y362598
X490551
X480709
X470866
X475787Y352756
X485630
X480709Y342913
X470866
X465945Y352756
X446260
X436417
X441339Y362598
Y342913
X436417Y333071
X426575
X416732
X421654Y323228
X431496
X441339
X461024
X456102Y333071
X475787Y313386
X456102Y293701
X411811Y323228
X401968
X392126
X382283
X372441
X377362Y333071
X387205
X397047
X392126Y342913
X411811
X416732Y352756
X406890
X411811Y362598
X401968
X382283
X372441
X377362Y352756
X372441Y342913
X416732Y234646
X436417
X397047Y214961
X525000
X534842
X544685
X554528
X559449Y224803
X569291
X579134
X584055Y234646
X574213
X579134Y244488
X584055Y254331
X574213
X564370
X554528
X544685
X549606Y264173
X559449
X564370Y274016
X574213
X584055
X579134Y283858
X584055Y293701
X574213
X564370
X554528
X559449Y283858
X549606
X544685Y274016
X539764Y264173
Y244488
X559449
X579134Y264173
Y303543
X584055Y313386
X574213
X579134Y323228
X584055Y333071
X574213
X564370
X554528
X544685
X534842
X525000
X529921Y342913
X539764
X549606
X559449
X569291
X579134
X584055Y352756
X574213
X564370
X554528
X544685
X534842
X525000
X529921Y362598
X539764
X549606
X559449
X569291
X579134
X559449Y323228
X549606
X539764
X529921
X534842Y313386
X544685
X554528
X539764Y224803
X529921
X574213Y214961
X584055
Y372441
X564370
X554528
X544685
X534842
X539764Y382283
X549606
X559449
X529921
X490551
X480709
X470866
X461024
X465945Y372441
X475787
X485630
X446260
X436417
X441339Y382283
X431496
X411811
X401968
X392126
X372441
X377362Y372441
X406890
X416732
X367520
X362598Y382283
X342913
X333071
X323228
X313386
X303543
X293701
X274016
X264173
X254331
X244488
X234646
X224803
X214961
X219882Y372441
X229724
X328150
X337992
X347835
X200197
X190354
X180512
X170669
X160827
X150984
X141142
X146063Y382283
X155905
X165748
X175591
X185433
X195276
X136221
X126378
X116535
X106693
X96850
X87008
X77165
X67323
X57480
X62402Y372441
X72244
X82087
X101772
X121457
X52559
X42717
X47638Y382283
X27953
T04
X452500Y13000
X462500
X472500
X482500
X334500Y94000
Y104000
Y114000
Y124000
Y134000
Y144000
Y154000
Y164000
X565500Y303000
Y313000
Y323000
T05
X386500Y174000
Y184000
X406500
Y174000
X332500Y274000
X322500
Y294000
X332500
X292500
Y274000
X386500Y214000
X406500
X469000Y228500
Y238500
X489000
Y228500
Y268500
X469000
X533000Y274500
X553000
Y244500
Y234500
X533000
Y244500
T06
X572000Y69756
Y81567
Y93378
Y105189
Y117000
Y128811
X22500Y123622
Y111811
Y100000
Y88189
Y76378
Y64567
X250567Y333000
X262378
X274189
X286000
X297811
X309622
X310744Y370500
X298933
X287122
X275311
X263500
X251689
T07
X201800Y346800
X209500Y358600
X358000Y357100
X350300Y345300
X384300Y345200
X392000Y357000
X425500Y356500
Y368300
X417800Y344700
X449800
X457500Y356500
Y368300
X449800Y380100
X417800
X384300Y380600
X392000Y368800
X358000Y368900
X350300Y380700
X201800Y382200
X209500Y370400
T08
X22500Y56102
X572000Y61291
Y137276
X22500Y132087
X242102Y333000
X318087
X319209Y370500
X243224
T09
X13780Y13780
X576772
X289000Y99500
Y158000
X576772Y379921
X13780
M30
