G04*
G04 #@! TF.GenerationSoftware,Altium Limited,Altium Designer,22.5.1 (42)*
G04*
G04 Layer_Color=16711935*
%FSLAX25Y25*%
%MOIN*%
G70*
G04*
G04 #@! TF.SameCoordinates,12F1D17F-3755-47B3-A83E-197F31224518*
G04*
G04*
G04 #@! TF.FilePolarity,Positive*
G04*
G01*
G75*
%ADD16C,0.00787*%
%ADD18C,0.00500*%
%ADD95C,0.00394*%
%ADD96R,0.05512X0.01772*%
D16*
X196567Y284658D02*
G03*
X196567Y284658I-394J0D01*
G01*
D18*
X199323Y281685D02*
X214677D01*
X199323Y242315D02*
X214677D01*
X199323D02*
Y281685D01*
X214677Y242315D02*
Y281685D01*
D95*
X488606Y30335D02*
G03*
X488606Y30335I-1969J0D01*
G01*
X156138Y145350D02*
G03*
X156138Y145350I-1969J0D01*
G01*
X461606Y29335D02*
G03*
X461606Y29335I-1969J0D01*
G01*
X308469Y51000D02*
G03*
X308469Y51000I-1969J0D01*
G01*
X77138Y181299D02*
G03*
X77138Y181299I-1969J0D01*
G01*
X172445Y264630D02*
Y268370D01*
X165555Y264630D02*
Y268370D01*
Y264630D02*
X172445D01*
X165555Y268370D02*
X172445D01*
X187657Y257669D02*
Y266331D01*
X182343Y257669D02*
Y266331D01*
X187657D01*
X182343Y257669D02*
X187657D01*
X358756Y290595D02*
Y302406D01*
X353244Y290595D02*
Y302406D01*
Y290595D02*
X358756D01*
X353244Y302406D02*
X358756D01*
X230945Y61630D02*
Y65370D01*
X224055Y61630D02*
Y65370D01*
Y61630D02*
X230945D01*
X224055Y65370D02*
X230945D01*
X164996Y68630D02*
Y72370D01*
X171886Y68630D02*
Y72370D01*
X164996D02*
X171886D01*
X164996Y68630D02*
X171886D01*
X160055Y61130D02*
Y64870D01*
X166945Y61130D02*
Y64870D01*
X160055D02*
X166945D01*
X160055Y61130D02*
X166945D01*
X285130Y36555D02*
X288870D01*
X285130Y43445D02*
X288870D01*
X285130Y36555D02*
Y43445D01*
X288870Y36555D02*
Y43445D01*
X481630Y46055D02*
Y52945D01*
X485370Y46055D02*
Y52945D01*
X481630Y46055D02*
X485370D01*
X481630Y52945D02*
X485370D01*
X471756Y138669D02*
Y147331D01*
X466244Y138669D02*
Y147331D01*
X471756D01*
X466244Y138669D02*
X471756D01*
X514630Y346055D02*
Y352945D01*
X518370Y346055D02*
Y352945D01*
X514630Y346055D02*
X518370D01*
X514630Y352945D02*
X518370D01*
X483130Y196945D02*
X486870D01*
X483130Y190055D02*
X486870D01*
Y196945D01*
X483130Y190055D02*
Y196945D01*
X478673Y212154D02*
Y218847D01*
X475327Y212154D02*
Y218847D01*
Y212154D02*
X478673D01*
X475327Y218847D02*
X478673D01*
X402232Y154654D02*
Y161346D01*
X398886Y154654D02*
Y161346D01*
Y154654D02*
X402232D01*
X398886Y161346D02*
X402232D01*
X494906Y26791D02*
Y38209D01*
X483095Y26791D02*
Y38209D01*
X494906D01*
X483095Y26791D02*
X494906D01*
X93933Y76839D02*
X99839Y70933D01*
Y44161D02*
Y70933D01*
X67161Y44161D02*
X99839D01*
X67161D02*
Y70933D01*
X73067Y76839D01*
X93933D01*
X52130Y164055D02*
X55870D01*
X52130Y170945D02*
X55870D01*
X52130Y164055D02*
Y170945D01*
X55870Y164055D02*
Y170945D01*
X94130Y346055D02*
X97870D01*
X94130Y352945D02*
X97870D01*
X94130Y346055D02*
Y352945D01*
X97870Y346055D02*
Y352945D01*
X113130Y344055D02*
X116870D01*
X113130Y350945D02*
X116870D01*
X113130Y344055D02*
Y350945D01*
X116870Y344055D02*
Y350945D01*
X134630Y344055D02*
X138370D01*
X134630Y350945D02*
X138370D01*
X134630Y344055D02*
Y350945D01*
X138370Y344055D02*
Y350945D01*
X138657Y366035D02*
Y374697D01*
X133343Y366035D02*
Y374697D01*
X138657D01*
X133343Y366035D02*
X138657D01*
X112843Y366535D02*
X118157D01*
X112843Y375197D02*
X118157D01*
X112843Y366535D02*
Y375197D01*
X118157Y366535D02*
Y375197D01*
X99158Y366535D02*
Y375197D01*
X93843Y366535D02*
Y375197D01*
X99158D01*
X93843Y366535D02*
X99158D01*
X23441Y162173D02*
X28559D01*
X23441Y158827D02*
X28559D01*
X23441D02*
Y162173D01*
X28559Y158827D02*
Y162173D01*
X408130Y139945D02*
X411870D01*
X408130Y133055D02*
X411870D01*
Y139945D01*
X408130Y133055D02*
Y139945D01*
X368055Y278630D02*
Y282370D01*
X374945Y278630D02*
Y282370D01*
X368055D02*
X374945D01*
X368055Y278630D02*
X374945D01*
X22713Y190870D02*
X29602D01*
X22713Y187130D02*
X29602D01*
X22713D02*
Y190870D01*
X29602Y187130D02*
Y190870D01*
X29445Y177630D02*
Y181370D01*
X22555Y177630D02*
Y181370D01*
Y177630D02*
X29445D01*
X22555Y181370D02*
X29445D01*
X29287Y167630D02*
Y171370D01*
X22398Y167630D02*
Y171370D01*
Y167630D02*
X29287D01*
X22398Y171370D02*
X29287D01*
X495405Y206020D02*
Y211531D01*
X483595Y206020D02*
Y211531D01*
X495405D01*
X483595Y206020D02*
X495405D01*
X491630Y189555D02*
X495370D01*
X491630Y196445D02*
X495370D01*
X491630Y189555D02*
Y196445D01*
X495370Y189555D02*
Y196445D01*
X150626Y129209D02*
X166374D01*
X150626Y148894D02*
X166374D01*
Y129209D02*
Y148894D01*
X150626Y129209D02*
Y148894D01*
X557630Y196055D02*
Y202945D01*
X561370Y196055D02*
Y202945D01*
X557630Y196055D02*
X561370D01*
X557630Y202945D02*
X561370D01*
X463370Y118055D02*
Y124945D01*
X459630Y118055D02*
Y124945D01*
X463370D01*
X459630Y118055D02*
X463370D01*
X470130Y118055D02*
X473870D01*
X470130Y124945D02*
X473870D01*
X470130Y118055D02*
Y124945D01*
X473870Y118055D02*
Y124945D01*
X459630Y106055D02*
X463370D01*
X459630Y112945D02*
X463370D01*
X459630Y106055D02*
Y112945D01*
X463370Y106055D02*
Y112945D01*
X172445Y255630D02*
Y259370D01*
X165555Y255630D02*
Y259370D01*
Y255630D02*
X172445D01*
X165555Y259370D02*
X172445D01*
X232630Y273398D02*
X236370D01*
X232630Y280287D02*
X236370D01*
X232630Y273398D02*
Y280287D01*
X236370Y273398D02*
Y280287D01*
X171169Y274342D02*
Y279658D01*
X179831Y274342D02*
Y279658D01*
X171169D02*
X179831D01*
X171169Y274342D02*
X179831D01*
X329630Y46055D02*
X333370D01*
X329630Y52945D02*
X333370D01*
X329630Y46055D02*
Y52945D01*
X333370Y46055D02*
Y52945D01*
X452630D02*
X456370D01*
X452630Y46055D02*
X456370D01*
Y52945D01*
X452630Y46055D02*
Y52945D01*
X558095Y213020D02*
X569906D01*
X558095Y218531D02*
X569906D01*
X558095Y213020D02*
Y218531D01*
X569906Y213020D02*
Y218531D01*
X408095Y148520D02*
X419906D01*
X408095Y154032D02*
X419906D01*
X408095Y148520D02*
Y154032D01*
X419906Y148520D02*
Y154032D01*
X570870Y196555D02*
Y203445D01*
X567130Y196555D02*
Y203445D01*
X570870D01*
X567130Y196555D02*
X570870D01*
X548870Y195555D02*
Y202445D01*
X545130Y195555D02*
Y202445D01*
X548870D01*
X545130Y195555D02*
X548870D01*
X369055Y301870D02*
X375945D01*
X369055Y298130D02*
X375945D01*
X369055D02*
Y301870D01*
X375945Y298130D02*
Y301870D01*
X368555Y294870D02*
X375445D01*
X368555Y291130D02*
X375445D01*
X368555D02*
Y294870D01*
X375445Y291130D02*
Y294870D01*
X549673Y219153D02*
Y225847D01*
X546327Y219153D02*
Y225847D01*
Y219153D02*
X549673D01*
X546327Y225847D02*
X549673D01*
X346153Y284232D02*
X352847D01*
X346153Y280886D02*
X352847D01*
Y284232D01*
X346153Y280886D02*
Y284232D01*
X467906Y25791D02*
Y37209D01*
X456095Y25791D02*
Y37209D01*
X467906D01*
X456095Y25791D02*
X467906D01*
X490055Y45630D02*
Y49370D01*
X496945Y45630D02*
Y49370D01*
X490055D02*
X496945D01*
X490055Y45630D02*
X496945D01*
X397630Y133055D02*
X401370D01*
X397630Y139945D02*
X401370D01*
X397630Y133055D02*
Y139945D01*
X401370Y133055D02*
Y139945D01*
X417130Y133055D02*
X420870D01*
X417130Y139945D02*
X420870D01*
X417130Y133055D02*
Y139945D01*
X420870Y133055D02*
Y139945D01*
X462555Y43630D02*
Y47370D01*
X469445Y43630D02*
Y47370D01*
X462555D02*
X469445D01*
X462555Y43630D02*
X469445D01*
X525756Y12642D02*
Y23272D01*
X520244Y12642D02*
Y23272D01*
X525756D01*
X520244Y12642D02*
X525756D01*
X91161Y86067D02*
X97067Y80161D01*
X91161Y86067D02*
Y112839D01*
X123839D01*
Y86067D02*
Y112839D01*
X117933Y80161D02*
X123839Y86067D01*
X97067Y80161D02*
X117933D01*
X50567D02*
X71433D01*
X77339Y86067D01*
Y112839D01*
X44661D02*
X77339D01*
X44661Y86067D02*
Y112839D01*
Y86067D02*
X50567Y80161D01*
X504468Y112378D02*
Y153323D01*
X544232Y112378D02*
Y153323D01*
X504468D02*
X544232D01*
X504468Y112378D02*
X544232D01*
X444744Y116169D02*
X450256D01*
X444744Y124831D02*
X450256D01*
X444744Y116169D02*
Y124831D01*
X450256Y116169D02*
Y124831D01*
X302643Y34500D02*
X320360D01*
X302643Y54500D02*
X320360D01*
Y34500D02*
Y54500D01*
X302643Y34500D02*
Y54500D01*
X218555Y73370D02*
X225445D01*
X218555Y69630D02*
X225445D01*
X218555D02*
Y73370D01*
X225445Y69630D02*
Y73370D01*
X289370Y50555D02*
Y57445D01*
X285630Y50555D02*
Y57445D01*
X289370D01*
X285630Y50555D02*
X289370D01*
X41370Y317555D02*
Y324445D01*
X37630Y317555D02*
Y324445D01*
X41370D01*
X37630Y317555D02*
X41370D01*
X55870D02*
Y324445D01*
X52130Y317555D02*
Y324445D01*
X55870D01*
X52130Y317555D02*
X55870D01*
X250370Y273055D02*
Y279945D01*
X246630Y273055D02*
Y279945D01*
X250370D01*
X246630Y273055D02*
X250370D01*
X71626Y165157D02*
Y184843D01*
X87374Y165157D02*
Y184843D01*
X71626D02*
X87374D01*
X71626Y165157D02*
X87374D01*
X132630Y112614D02*
Y119504D01*
X136370Y112614D02*
Y119504D01*
X132630Y112614D02*
X136370D01*
X132630Y119504D02*
X136370D01*
X40630Y177555D02*
Y184445D01*
X44370Y177555D02*
Y184445D01*
X40630Y177555D02*
X44370D01*
X40630Y184445D02*
X44370D01*
X118114Y129370D02*
X125004D01*
X118114Y125630D02*
X125004D01*
X118114D02*
Y129370D01*
X125004Y125630D02*
Y129370D01*
X203756Y125020D02*
Y133681D01*
X198244Y125020D02*
Y133681D01*
X203756D01*
X198244Y125020D02*
X203756D01*
X189370Y128055D02*
Y134945D01*
X185630Y128055D02*
Y134945D01*
X189370D01*
X185630Y128055D02*
X189370D01*
X106870Y163213D02*
Y170102D01*
X103130Y163213D02*
Y170102D01*
X106870D01*
X103130Y163213D02*
X106870D01*
X121256Y161669D02*
Y170331D01*
X115744Y161669D02*
Y170331D01*
X121256D01*
X115744Y161669D02*
X121256D01*
X128130Y137898D02*
Y144787D01*
X131870Y137898D02*
Y144787D01*
X128130Y137898D02*
X131870D01*
X128130Y144787D02*
X131870D01*
X56370Y176555D02*
Y183445D01*
X52630Y176555D02*
Y183445D01*
X56370D01*
X52630Y176555D02*
X56370D01*
X189870Y142898D02*
Y149787D01*
X186130Y142898D02*
Y149787D01*
X189870D01*
X186130Y142898D02*
X189870D01*
X197744Y142520D02*
Y151181D01*
X203256Y142520D02*
Y151181D01*
X197744Y142520D02*
X203256D01*
X197744Y151181D02*
X203256D01*
X106870Y178555D02*
Y185445D01*
X103130Y178555D02*
Y185445D01*
X106870D01*
X103130Y178555D02*
X106870D01*
D96*
X523000Y22386D02*
D03*
M02*
